{
  "accessors": [
    {
      "bufferView": 0,
      "componentType": 5126,
      "count": 48,
      "type": "VEC3",
      "max": [
        0.0,
        0.13120000064373016,
        0.12300000339746475
      ],
      "min": [
        -0.25,
        0.0,
        0.0
      ]
    },
    {
      "bufferView": 1,
      "componentType": 5126,
      "count": 48,
      "type": "VEC3",
      "max": [
        1.0,
        1.0,
        1.0
      ],
      "min": [
        -1.0,
        -1.0,
        -1.0
      ]
    },
    {
      "bufferView": 2,
      "componentType": 5126,
      "count": 48,
      "type": "VEC4",
      "max": [
        1.0,
        0.0,
        1.0,
        1.0
      ],
      "min": [
        -1.0,
        0.0,
        -1.0,
        1.0
      ]
    },
    {
      "bufferView": 3,
      "componentType": 5126,
      "count": 48,
      "type": "VEC2",
      "max": [
        9.8425197601318359,
        2.05367112159729
      ],
      "min": [
        -9.8425197601318359,
        -4.2814445495605469
      ]
    },
    {
      "bufferView": 4,
      "componentType": 5121,
      "count": 84,
      "type": "SCALAR",
      "max": [
        47.0
      ],
      "min": [
        0.0
      ]
    }
  ],
  "asset": {
    "version": "2.0"
  },
  "buffers": [
    {
      "uri": "barrierRed.bin",
      "byteLength": 2388
    }
  ],
  "bufferViews": [
    {
      "buffer": 0,
      "byteLength": 576
    },
    {
      "buffer": 0,
      "byteOffset": 576,
      "byteLength": 576
    },
    {
      "buffer": 0,
      "byteOffset": 1152,
      "byteLength": 768
    },
    {
      "buffer": 0,
      "byteOffset": 1920,
      "byteLength": 384
    },
    {
      "buffer": 0,
      "byteOffset": 2304,
      "byteLength": 84
    }
  ],
  "materials": [
    {
      "pbrMetallicRoughness": {
        "baseColorFactor": [
          0.9098039,
          0.333333343,
          0.3254902,
          1.0
        ],
        "metallicFactor": 0.0
      },
      "name": "red"
    }
  ],
  "meshes": [
    {
      "primitives": [
        {
          "attributes": {
            "POSITION": 0,
            "NORMAL": 1,
            "TANGENT": 2,
            "TEXCOORD_0": 3
          },
          "indices": 4,
          "material": 0
        }
      ],
      "name": "barrierRed"
    }
  ],
  "nodes": [
    {
      "mesh": 0,
      "translation": [
        3.20484471,
        1.60296546E-31,
        -1.94935
      ],
      "name": "barrierRed"
    }
  ],
  "scene": 0,
  "scenes": [
    {
      "nodes": [
        0
      ],
      "name": "barrierRed"
    }
  ]
}