{
  "accessors": [
    {
      "bufferView": 0,
      "componentType": 5126,
      "count": 96,
      "type": "VEC3",
      "max": [
        0.0,
        0.13120000064373016,
        0.12300000339746475
      ],
      "min": [
        -1.0,
        0.0,
        0.0
      ]
    },
    {
      "bufferView": 1,
      "componentType": 5126,
      "count": 96,
      "type": "VEC3",
      "max": [
        1.0,
        1.0,
        1.0
      ],
      "min": [
        -1.0,
        -1.0,
        -1.0
      ]
    },
    {
      "bufferView": 2,
      "componentType": 5126,
      "count": 96,
      "type": "VEC4",
      "max": [
        1.0,
        0.0,
        1.0,
        1.0
      ],
      "min": [
        -1.0,
        0.0,
        -1.0,
        1.0
      ]
    },
    {
      "bufferView": 3,
      "componentType": 5126,
      "count": 96,
      "type": "VEC2",
      "max": [
        39.370079040527344,
        2.05367112159729
      ],
      "min": [
        -39.370079040527344,
        -4.2814445495605469
      ]
    },
    {
      "bufferView": 4,
      "componentType": 5121,
      "count": 114,
      "type": "SCALAR",
      "max": [
        71.0
      ],
      "min": [
        0.0
      ]
    },
    {
      "bufferView": 5,
      "componentType": 5121,
      "count": 114,
      "type": "SCALAR",
      "max": [
        95.0
      ],
      "min": [
        0.0
      ]
    }
  ],
  "asset": {
    "version": "2.0"
  },
  "buffers": [
    {
      "uri": "barrierWall.bin",
      "byteLength": 4836
    }
  ],
  "bufferViews": [
    {
      "buffer": 0,
      "byteLength": 1152
    },
    {
      "buffer": 0,
      "byteOffset": 1152,
      "byteLength": 1152
    },
    {
      "buffer": 0,
      "byteOffset": 2304,
      "byteLength": 1536
    },
    {
      "buffer": 0,
      "byteOffset": 3840,
      "byteLength": 768
    },
    {
      "buffer": 0,
      "byteOffset": 4608,
      "byteLength": 114
    },
    {
      "buffer": 0,
      "byteOffset": 4722,
      "byteLength": 114
    }
  ],
  "materials": [
    {
      "pbrMetallicRoughness": {
        "baseColorFactor": [
          0.945098042,
          0.9490196,
          0.9647059,
          1.0
        ],
        "metallicFactor": 0.0
      },
      "name": "grey"
    },
    {
      "pbrMetallicRoughness": {
        "baseColorFactor": [
          0.9098039,
          0.333333343,
          0.3254902,
          1.0
        ],
        "metallicFactor": 0.0
      },
      "name": "red"
    }
  ],
  "meshes": [
    {
      "primitives": [
        {
          "attributes": {
            "POSITION": 0,
            "NORMAL": 1,
            "TANGENT": 2,
            "TEXCOORD_0": 3
          },
          "indices": 4,
          "material": 0
        },
        {
          "attributes": {
            "POSITION": 0,
            "NORMAL": 1,
            "TANGENT": 2,
            "TEXCOORD_0": 3
          },
          "indices": 5,
          "material": 1
        }
      ],
      "name": "barrierWall"
    }
  ],
  "nodes": [
    {
      "mesh": 0,
      "translation": [
        3.57484484,
        0.0,
        -2.38235
      ],
      "name": "barrierWall"
    }
  ],
  "scene": 0,
  "scenes": [
    {
      "nodes": [
        0
      ],
      "name": "barrierWall"
    }
  ]
}