{
  "accessors": [
    {
      "bufferView": 0,
      "componentType": 5126,
      "count": 132,
      "type": "VEC3",
      "max": [
        0.0,
        0.25,
        0.071900010108947754
      ],
      "min": [
        -0.5,
        -0.030000109225511551,
        0.0
      ]
    },
    {
      "bufferView": 1,
      "componentType": 5126,
      "count": 132,
      "type": "VEC3",
      "max": [
        1.0,
        1.0,
        1.0
      ],
      "min": [
        -1.0,
        -1.0,
        -1.0
      ]
    },
    {
      "bufferView": 2,
      "componentType": 5126,
      "count": 132,
      "type": "VEC4",
      "max": [
        1.0,
        1.0,
        1.0,
        1.0
      ],
      "min": [
        -1.0,
        -1.0,
        -1.0,
        -1.0
      ]
    },
    {
      "bufferView": 3,
      "componentType": 5126,
      "count": 132,
      "type": "VEC2",
      "max": [
        19.685039520263672,
        2.1811065673828125
      ],
      "min": [
        -19.685039520263672,
        -8.8425197601318359
      ]
    },
    {
      "bufferView": 4,
      "componentType": 5121,
      "count": 120,
      "type": "SCALAR",
      "max": [
        71.0
      ],
      "min": [
        0.0
      ]
    },
    {
      "bufferView": 5,
      "componentType": 5121,
      "count": 36,
      "type": "SCALAR",
      "max": [
        91.0
      ],
      "min": [
        72.0
      ]
    },
    {
      "bufferView": 6,
      "componentType": 5121,
      "count": 30,
      "type": "SCALAR",
      "max": [
        103.0
      ],
      "min": [
        92.0
      ]
    },
    {
      "bufferView": 7,
      "componentType": 5121,
      "count": 6,
      "type": "SCALAR",
      "max": [
        107.0
      ],
      "min": [
        104.0
      ]
    },
    {
      "bufferView": 8,
      "componentType": 5121,
      "count": 24,
      "type": "SCALAR",
      "max": [
        131.0
      ],
      "min": [
        108.0
      ]
    }
  ],
  "asset": {
    "version": "2.0"
  },
  "buffers": [
    {
      "uri": "billboardLower.bin",
      "byteLength": 6552
    }
  ],
  "bufferViews": [
    {
      "buffer": 0,
      "byteLength": 1584
    },
    {
      "buffer": 0,
      "byteOffset": 1584,
      "byteLength": 1584
    },
    {
      "buffer": 0,
      "byteOffset": 3168,
      "byteLength": 2112
    },
    {
      "buffer": 0,
      "byteOffset": 5280,
      "byteLength": 1056
    },
    {
      "buffer": 0,
      "byteOffset": 6336,
      "byteLength": 120
    },
    {
      "buffer": 0,
      "byteOffset": 6456,
      "byteLength": 36
    },
    {
      "buffer": 0,
      "byteOffset": 6492,
      "byteLength": 30
    },
    {
      "buffer": 0,
      "byteOffset": 6522,
      "byteLength": 6
    },
    {
      "buffer": 0,
      "byteOffset": 6528,
      "byteLength": 24
    }
  ],
  "images": [
    {
      "uri": "tankcoBanner.png",
      "name": "tankcoBanner"
    }
  ],
  "materials": [
    {
      "pbrMetallicRoughness": {
        "baseColorFactor": [
          0.945098042,
          0.9490196,
          0.9647059,
          1.0
        ],
        "metallicFactor": 0.0
      },
      "name": "grey"
    },
    {
      "pbrMetallicRoughness": {
        "baseColorFactor": [
          0.266666681,
          0.266666681,
          0.266666681,
          1.0
        ],
        "metallicFactor": 0.0
      },
      "name": "road"
    },
    {
      "pbrMetallicRoughness": {
        "baseColorFactor": [
          0.831372559,
          0.654902,
          0.423529416,
          1.0
        ],
        "metallicFactor": 0.0
      },
      "name": "bark"
    },
    {
      "pbrMetallicRoughness": {
        "baseColorTexture": {
          "index": 0
        },
        "metallicFactor": 0.0
      },
      "name": "tankco"
    },
    {
      "pbrMetallicRoughness": {
        "metallicFactor": 0.0
      },
      "name": "_defaultMat"
    }
  ],
  "meshes": [
    {
      "primitives": [
        {
          "attributes": {
            "POSITION": 0,
            "NORMAL": 1,
            "TANGENT": 2,
            "TEXCOORD_0": 3
          },
          "indices": 4,
          "material": 0
        },
        {
          "attributes": {
            "POSITION": 0,
            "NORMAL": 1,
            "TANGENT": 2,
            "TEXCOORD_0": 3
          },
          "indices": 5,
          "material": 1
        },
        {
          "attributes": {
            "POSITION": 0,
            "NORMAL": 1,
            "TANGENT": 2,
            "TEXCOORD_0": 3
          },
          "indices": 6,
          "material": 2
        },
        {
          "attributes": {
            "POSITION": 0,
            "NORMAL": 1,
            "TANGENT": 2,
            "TEXCOORD_0": 3
          },
          "indices": 7,
          "material": 3
        },
        {
          "attributes": {
            "POSITION": 0,
            "NORMAL": 1,
            "TANGENT": 2,
            "TEXCOORD_0": 3
          },
          "indices": 8,
          "material": 4
        }
      ],
      "name": "billboardLower"
    }
  ],
  "nodes": [
    {
      "mesh": 0,
      "translation": [
        3.25052047,
        0.03000011,
        -3.86730313
      ],
      "name": "billboardLower"
    }
  ],
  "samplers": [
    {}
  ],
  "scene": 0,
  "scenes": [
    {
      "nodes": [
        0
      ],
      "name": "billboardLower"
    }
  ],
  "textures": [
    {
      "sampler": 0,
      "source": 0,
      "name": "tankcoBanner"
    }
  ]
}