{
  "accessors": [
    {
      "bufferView": 0,
      "componentType": 5126,
      "count": 184,
      "type": "VEC3",
      "max": [
        0.06379999965429306,
        1.0,
        0.43620002269744873
      ],
      "min": [
        -0.93620002269744873,
        2.4273249461537849E-17,
        -0.039999999105930328
      ]
    },
    {
      "bufferView": 1,
      "componentType": 5126,
      "count": 184,
      "type": "VEC3",
      "max": [
        1.0,
        1.0,
        1.0
      ],
      "min": [
        -1.0,
        -1.0,
        -1.0
      ]
    },
    {
      "bufferView": 2,
      "componentType": 5126,
      "count": 184,
      "type": "VEC4",
      "max": [
        1.0,
        0.96711951494216919,
        1.0,
        1.0
      ],
      "min": [
        -1.0,
        0.0,
        -1.0,
        1.0
      ]
    },
    {
      "bufferView": 3,
      "componentType": 5126,
      "count": 184,
      "type": "VEC2",
      "max": [
        36.858268737792969,
        11.278469085693359
      ],
      "min": [
        -36.858268737792969,
        -38.370079040527344
      ]
    },
    {
      "bufferView": 4,
      "componentType": 5121,
      "count": 24,
      "type": "SCALAR",
      "max": [
        11.0
      ],
      "min": [
        0.0
      ]
    },
    {
      "bufferView": 5,
      "componentType": 5121,
      "count": 36,
      "type": "SCALAR",
      "max": [
        31.0
      ],
      "min": [
        12.0
      ]
    },
    {
      "bufferView": 6,
      "componentType": 5121,
      "count": 6,
      "type": "SCALAR",
      "max": [
        35.0
      ],
      "min": [
        32.0
      ]
    },
    {
      "bufferView": 7,
      "componentType": 5121,
      "count": 342,
      "type": "SCALAR",
      "max": [
        183.0
      ],
      "min": [
        36.0
      ]
    }
  ],
  "asset": {
    "version": "2.0"
  },
  "buffers": [
    {
      "uri": "billboard.bin",
      "byteLength": 9240
    }
  ],
  "bufferViews": [
    {
      "buffer": 0,
      "byteLength": 2208
    },
    {
      "buffer": 0,
      "byteOffset": 2208,
      "byteLength": 2208
    },
    {
      "buffer": 0,
      "byteOffset": 4416,
      "byteLength": 2944
    },
    {
      "buffer": 0,
      "byteOffset": 7360,
      "byteLength": 1472
    },
    {
      "buffer": 0,
      "byteOffset": 8832,
      "byteLength": 24
    },
    {
      "buffer": 0,
      "byteOffset": 8856,
      "byteLength": 36
    },
    {
      "buffer": 0,
      "byteOffset": 8892,
      "byteLength": 6
    },
    {
      "buffer": 0,
      "byteOffset": 8898,
      "byteLength": 342
    }
  ],
  "images": [
    {
      "uri": "tankcoBanner.png",
      "name": "tankcoBanner"
    }
  ],
  "materials": [
    {
      "pbrMetallicRoughness": {
        "baseColorFactor": [
          0.831372559,
          0.654902,
          0.423529416,
          1.0
        ],
        "metallicFactor": 0.0
      },
      "name": "bark"
    },
    {
      "pbrMetallicRoughness": {
        "baseColorFactor": [
          0.266666681,
          0.266666681,
          0.266666681,
          1.0
        ],
        "metallicFactor": 0.0
      },
      "name": "road"
    },
    {
      "pbrMetallicRoughness": {
        "baseColorTexture": {
          "index": 0
        },
        "metallicFactor": 0.0
      },
      "name": "tankco"
    },
    {
      "pbrMetallicRoughness": {
        "baseColorFactor": [
          0.945098042,
          0.9490196,
          0.9647059,
          1.0
        ],
        "metallicFactor": 0.0
      },
      "name": "grey"
    }
  ],
  "meshes": [
    {
      "primitives": [
        {
          "attributes": {
            "POSITION": 0,
            "NORMAL": 1,
            "TANGENT": 2,
            "TEXCOORD_0": 3
          },
          "indices": 4,
          "material": 0
        },
        {
          "attributes": {
            "POSITION": 0,
            "NORMAL": 1,
            "TANGENT": 2,
            "TEXCOORD_0": 3
          },
          "indices": 5,
          "material": 1
        },
        {
          "attributes": {
            "POSITION": 0,
            "NORMAL": 1,
            "TANGENT": 2,
            "TEXCOORD_0": 3
          },
          "indices": 6,
          "material": 2
        },
        {
          "attributes": {
            "POSITION": 0,
            "NORMAL": 1,
            "TANGENT": 2,
            "TEXCOORD_0": 3
          },
          "indices": 7,
          "material": 3
        }
      ],
      "name": "billboard"
    }
  ],
  "nodes": [
    {
      "mesh": 0,
      "translation": [
        5.60672045,
        4.776541E-08,
        -3.82730269
      ],
      "name": "billboard"
    }
  ],
  "samplers": [
    {}
  ],
  "scene": 0,
  "scenes": [
    {
      "nodes": [
        0
      ],
      "name": "billboard"
    }
  ],
  "textures": [
    {
      "sampler": 0,
      "source": 0,
      "name": "tankcoBanner"
    }
  ]
}