{
  "accessors": [
    {
      "bufferView": 0,
      "componentType": 5126,
      "count": 64,
      "type": "VEC3",
      "max": [
        0.0,
        0.5,
        0.034499999135732651
      ],
      "min": [
        -1.0,
        -1.2638392283548438E-18,
        0.0
      ]
    },
    {
      "bufferView": 1,
      "componentType": 5126,
      "count": 64,
      "type": "VEC3",
      "max": [
        1.0,
        1.0,
        1.0
      ],
      "min": [
        -1.0,
        -1.0,
        -1.0
      ]
    },
    {
      "bufferView": 2,
      "componentType": 5126,
      "count": 64,
      "type": "VEC4",
      "max": [
        1.0,
        0.0,
        1.0,
        1.0
      ],
      "min": [
        -1.0,
        0.0,
        -1.0,
        -1.0
      ]
    },
    {
      "bufferView": 3,
      "componentType": 5126,
      "count": 64,
      "type": "VEC2",
      "max": [
        39.370079040527344,
        1.0
      ],
      "min": [
        -39.370079040527344,
        -18.685039520263672
      ]
    },
    {
      "bufferView": 4,
      "componentType": 5121,
      "count": 96,
      "type": "SCALAR",
      "max": [
        55.0
      ],
      "min": [
        0.0
      ]
    },
    {
      "bufferView": 5,
      "componentType": 5121,
      "count": 12,
      "type": "SCALAR",
      "max": [
        63.0
      ],
      "min": [
        56.0
      ]
    }
  ],
  "asset": {
    "version": "2.0"
  },
  "buffers": [
    {
      "uri": "fenceStraight.bin",
      "byteLength": 3180
    }
  ],
  "bufferViews": [
    {
      "buffer": 0,
      "byteLength": 768
    },
    {
      "buffer": 0,
      "byteOffset": 768,
      "byteLength": 768
    },
    {
      "buffer": 0,
      "byteOffset": 1536,
      "byteLength": 1024
    },
    {
      "buffer": 0,
      "byteOffset": 2560,
      "byteLength": 512
    },
    {
      "buffer": 0,
      "byteOffset": 3072,
      "byteLength": 96
    },
    {
      "buffer": 0,
      "byteOffset": 3168,
      "byteLength": 12
    }
  ],
  "images": [
    {
      "uri": "net.png",
      "name": "net"
    }
  ],
  "materials": [
    {
      "pbrMetallicRoughness": {
        "baseColorFactor": [
          0.945098042,
          0.9490196,
          0.9647059,
          1.0
        ],
        "metallicFactor": 0.0
      },
      "name": "grey"
    },
    {
      "pbrMetallicRoughness": {
        "baseColorTexture": {
          "index": 0
        },
        "metallicFactor": 0.0
      },
      "alphaMode": "BLEND",
      "name": "net"
    }
  ],
  "meshes": [
    {
      "primitives": [
        {
          "attributes": {
            "POSITION": 0,
            "NORMAL": 1,
            "TANGENT": 2,
            "TEXCOORD_0": 3
          },
          "indices": 4,
          "material": 0
        },
        {
          "attributes": {
            "POSITION": 0,
            "NORMAL": 1,
            "TANGENT": 2,
            "TEXCOORD_0": 3
          },
          "indices": 5,
          "material": 1
        }
      ],
      "name": "fenceStraight"
    }
  ],
  "nodes": [
    {
      "mesh": 0,
      "translation": [
        4.98556852,
        1.26383923E-18,
        -2.7085073
      ],
      "name": "fenceStraight"
    }
  ],
  "samplers": [
    {}
  ],
  "scene": 0,
  "scenes": [
    {
      "nodes": [
        0
      ],
      "name": "fenceStraight"
    }
  ],
  "textures": [
    {
      "sampler": 0,
      "source": 0,
      "name": "net"
    }
  ]
}