{
  "accessors": [
    {
      "bufferView": 0,
      "componentType": 5126,
      "count": 466,
      "type": "VEC3",
      "max": [
        7.2191141080782243E-16,
        0.8200000524520874,
        0.23600000143051147
      ],
      "min": [
        -1.0,
        0.0,
        -0.083999998867511749
      ]
    },
    {
      "bufferView": 1,
      "componentType": 5126,
      "count": 466,
      "type": "VEC3",
      "max": [
        1.0,
        1.0,
        1.0
      ],
      "min": [
        -1.0,
        -1.0,
        -1.0
      ]
    },
    {
      "bufferView": 2,
      "componentType": 5126,
      "count": 466,
      "type": "VEC4",
      "max": [
        1.0,
        0.0,
        1.0,
        1.0
      ],
      "min": [
        -1.0,
        -0.99785894155502319,
        -1.0,
        -1.0
      ]
    },
    {
      "bufferView": 3,
      "componentType": 5126,
      "count": 466,
      "type": "VEC2",
      "max": [
        39.370079040527344,
        12.10801887512207
      ],
      "min": [
        -39.370079040527344,
        -31.283466339111328
      ]
    },
    {
      "bufferView": 4,
      "componentType": 5123,
      "count": 888,
      "type": "SCALAR",
      "max": [
        397.0
      ],
      "min": [
        0.0
      ]
    },
    {
      "bufferView": 5,
      "componentType": 5123,
      "count": 168,
      "type": "SCALAR",
      "max": [
        465.0
      ],
      "min": [
        398.0
      ]
    }
  ],
  "asset": {
    "version": "2.0"
  },
  "buffers": [
    {
      "uri": "fenceCurved.bin",
      "byteLength": 24480
    }
  ],
  "bufferViews": [
    {
      "buffer": 0,
      "byteLength": 5592
    },
    {
      "buffer": 0,
      "byteOffset": 5592,
      "byteLength": 5592
    },
    {
      "buffer": 0,
      "byteOffset": 11184,
      "byteLength": 7456
    },
    {
      "buffer": 0,
      "byteOffset": 18640,
      "byteLength": 3728
    },
    {
      "buffer": 0,
      "byteOffset": 22368,
      "byteLength": 1776
    },
    {
      "buffer": 0,
      "byteOffset": 24144,
      "byteLength": 336
    }
  ],
  "images": [
    {
      "uri": "net.png",
      "name": "net"
    }
  ],
  "materials": [
    {
      "pbrMetallicRoughness": {
        "baseColorFactor": [
          0.945098042,
          0.9490196,
          0.9647059,
          1.0
        ],
        "metallicFactor": 0.0
      },
      "name": "grey"
    },
    {
      "pbrMetallicRoughness": {
        "baseColorTexture": {
          "index": 0
        },
        "metallicFactor": 0.0
      },
      "alphaMode": "BLEND",
      "name": "net"
    }
  ],
  "meshes": [
    {
      "primitives": [
        {
          "attributes": {
            "POSITION": 0,
            "NORMAL": 1,
            "TANGENT": 2,
            "TEXCOORD_0": 3
          },
          "indices": 4,
          "material": 0
        },
        {
          "attributes": {
            "POSITION": 0,
            "NORMAL": 1,
            "TANGENT": 2,
            "TEXCOORD_0": 3
          },
          "indices": 5,
          "material": 1
        }
      ],
      "name": "fenceCurved"
    }
  ],
  "nodes": [
    {
      "mesh": 0,
      "translation": [
        4.98556852,
        0.0,
        -2.28000736
      ],
      "name": "fenceCurved"
    }
  ],
  "samplers": [
    {}
  ],
  "scene": 0,
  "scenes": [
    {
      "nodes": [
        0
      ],
      "name": "fenceCurved"
    }
  ],
  "textures": [
    {
      "sampler": 0,
      "source": 0,
      "name": "net"
    }
  ]
}