{
  "accessors": [
    {
      "bufferView": 0,
      "componentType": 5126,
      "count": 100,
      "type": "VEC3",
      "max": [
        0.0099999997764825821,
        1.2200000286102295,
        0.0099999997764825821
      ],
      "min": [
        -0.17999999225139618,
        0.0,
        -0.0099999997764825821
      ]
    },
    {
      "bufferView": 1,
      "componentType": 5126,
      "count": 100,
      "type": "VEC3",
      "max": [
        1.0,
        1.0,
        1.0
      ],
      "min": [
        -1.0,
        -1.0,
        -1.0
      ]
    },
    {
      "bufferView": 2,
      "componentType": 5126,
      "count": 100,
      "type": "VEC4",
      "max": [
        1.0,
        0.00651040393859148,
        1.0,
        1.0
      ],
      "min": [
        -1.0,
        0.0,
        -1.0,
        -1.0
      ]
    },
    {
      "bufferView": 3,
      "componentType": 5126,
      "count": 100,
      "type": "VEC2",
      "max": [
        7.08661413192749,
        1.3937008380889893
      ],
      "min": [
        -7.08661413192749,
        -47.031497955322266
      ]
    },
    {
      "bufferView": 4,
      "componentType": 5121,
      "count": 60,
      "type": "SCALAR",
      "max": [
        31.0
      ],
      "min": [
        0.0
      ]
    },
    {
      "bufferView": 5,
      "componentType": 5121,
      "count": 90,
      "type": "SCALAR",
      "max": [
        79.0
      ],
      "min": [
        32.0
      ]
    },
    {
      "bufferView": 6,
      "componentType": 5121,
      "count": 30,
      "type": "SCALAR",
      "max": [
        99.0
      ],
      "min": [
        80.0
      ]
    }
  ],
  "asset": {
    "version": "2.0"
  },
  "buffers": [
    {
      "uri": "flagCheckers.bin",
      "byteLength": 4980
    }
  ],
  "bufferViews": [
    {
      "buffer": 0,
      "byteLength": 1200
    },
    {
      "buffer": 0,
      "byteOffset": 1200,
      "byteLength": 1200
    },
    {
      "buffer": 0,
      "byteOffset": 2400,
      "byteLength": 1600
    },
    {
      "buffer": 0,
      "byteOffset": 4000,
      "byteLength": 800
    },
    {
      "buffer": 0,
      "byteOffset": 4800,
      "byteLength": 60
    },
    {
      "buffer": 0,
      "byteOffset": 4860,
      "byteLength": 90
    },
    {
      "buffer": 0,
      "byteOffset": 4950,
      "byteLength": 30
    }
  ],
  "images": [
    {
      "uri": "checkers.png",
      "name": "checkers"
    }
  ],
  "materials": [
    {
      "pbrMetallicRoughness": {
        "metallicFactor": 0.0
      },
      "name": "_defaultMat"
    },
    {
      "pbrMetallicRoughness": {
        "baseColorFactor": [
          0.945098042,
          0.9490196,
          0.9647059,
          1.0
        ],
        "metallicFactor": 0.0
      },
      "name": "grey"
    },
    {
      "pbrMetallicRoughness": {
        "baseColorTexture": {
          "index": 0
        },
        "metallicFactor": 0.0,
        "roughnessFactor": 0.5
      },
      "name": "checkers"
    }
  ],
  "meshes": [
    {
      "primitives": [
        {
          "attributes": {
            "POSITION": 0,
            "NORMAL": 1,
            "TANGENT": 2,
            "TEXCOORD_0": 3
          },
          "indices": 4,
          "material": 0
        },
        {
          "attributes": {
            "POSITION": 0,
            "NORMAL": 1,
            "TANGENT": 2,
            "TEXCOORD_0": 3
          },
          "indices": 5,
          "material": 1
        },
        {
          "attributes": {
            "POSITION": 0,
            "NORMAL": 1,
            "TANGENT": 2,
            "TEXCOORD_0": 3
          },
          "indices": 6,
          "material": 2
        }
      ],
      "name": "flagCheckers"
    }
  ],
  "nodes": [
    {
      "mesh": 0,
      "translation": [
        4.69542742,
        0.0,
        -1.35476172
      ],
      "name": "flagCheckers"
    }
  ],
  "samplers": [
    {}
  ],
  "scene": 0,
  "scenes": [
    {
      "nodes": [
        0
      ],
      "name": "flagCheckers"
    }
  ],
  "textures": [
    {
      "sampler": 0,
      "source": 0,
      "name": "checkers"
    }
  ]
}