{
  "accessors": [
    {
      "bufferView": 0,
      "componentType": 5126,
      "count": 96,
      "type": "VEC3",
      "max": [
        0.0099999997764825821,
        1.2200000286102295,
        0.0099999997764825821
      ],
      "min": [
        -0.17999999225139618,
        0.0,
        -0.0099999997764825821
      ]
    },
    {
      "bufferView": 1,
      "componentType": 5126,
      "count": 96,
      "type": "VEC3",
      "max": [
        1.0,
        1.0,
        1.0
      ],
      "min": [
        -1.0,
        -1.0,
        -1.0
      ]
    },
    {
      "bufferView": 2,
      "componentType": 5126,
      "count": 96,
      "type": "VEC4",
      "max": [
        1.0,
        0.0,
        1.0,
        1.0
      ],
      "min": [
        -1.0,
        0.0,
        -1.0,
        -1.0
      ]
    },
    {
      "bufferView": 3,
      "componentType": 5126,
      "count": 96,
      "type": "VEC2",
      "max": [
        7.08661413192749,
        1.3937008380889893
      ],
      "min": [
        -7.08661413192749,
        -47.031497955322266
      ]
    },
    {
      "bufferView": 4,
      "componentType": 5121,
      "count": 60,
      "type": "SCALAR",
      "max": [
        31.0
      ],
      "min": [
        0.0
      ]
    },
    {
      "bufferView": 5,
      "componentType": 5121,
      "count": 90,
      "type": "SCALAR",
      "max": [
        79.0
      ],
      "min": [
        32.0
      ]
    },
    {
      "bufferView": 6,
      "componentType": 5121,
      "count": 30,
      "type": "SCALAR",
      "max": [
        95.0
      ],
      "min": [
        7.0
      ]
    }
  ],
  "asset": {
    "version": "2.0"
  },
  "buffers": [
    {
      "uri": "flagGreen.bin",
      "byteLength": 4788
    }
  ],
  "bufferViews": [
    {
      "buffer": 0,
      "byteLength": 1152
    },
    {
      "buffer": 0,
      "byteOffset": 1152,
      "byteLength": 1152
    },
    {
      "buffer": 0,
      "byteOffset": 2304,
      "byteLength": 1536
    },
    {
      "buffer": 0,
      "byteOffset": 3840,
      "byteLength": 768
    },
    {
      "buffer": 0,
      "byteOffset": 4608,
      "byteLength": 60
    },
    {
      "buffer": 0,
      "byteOffset": 4668,
      "byteLength": 90
    },
    {
      "buffer": 0,
      "byteOffset": 4758,
      "byteLength": 30
    }
  ],
  "materials": [
    {
      "pbrMetallicRoughness": {
        "metallicFactor": 0.0
      },
      "name": "_defaultMat"
    },
    {
      "pbrMetallicRoughness": {
        "baseColorFactor": [
          0.945098042,
          0.9490196,
          0.9647059,
          1.0
        ],
        "metallicFactor": 0.0
      },
      "name": "grey"
    },
    {
      "pbrMetallicRoughness": {
        "baseColorFactor": [
          0.3019608,
          0.56078434,
          0.431372553,
          1.0
        ],
        "metallicFactor": 0.0
      },
      "name": "grass"
    }
  ],
  "meshes": [
    {
      "primitives": [
        {
          "attributes": {
            "POSITION": 0,
            "NORMAL": 1,
            "TANGENT": 2,
            "TEXCOORD_0": 3
          },
          "indices": 4,
          "material": 0
        },
        {
          "attributes": {
            "POSITION": 0,
            "NORMAL": 1,
            "TANGENT": 2,
            "TEXCOORD_0": 3
          },
          "indices": 5,
          "material": 1
        },
        {
          "attributes": {
            "POSITION": 0,
            "NORMAL": 1,
            "TANGENT": 2,
            "TEXCOORD_0": 3
          },
          "indices": 6,
          "material": 2
        }
      ],
      "name": "flagGreen"
    }
  ],
  "nodes": [
    {
      "mesh": 0,
      "translation": [
        4.98865747,
        0.0,
        -1.35476172
      ],
      "name": "flagGreen"
    }
  ],
  "scene": 0,
  "scenes": [
    {
      "nodes": [
        0
      ],
      "name": "flagGreen"
    }
  ]
}