{
  "accessors": [
    {
      "bufferView": 0,
      "componentType": 5126,
      "count": 303,
      "type": "VEC3",
      "max": [
        0.0,
        1.1863915920257568,
        1.0
      ],
      "min": [
        -1.0,
        0.0,
        -0.019999999552965164
      ]
    },
    {
      "bufferView": 1,
      "componentType": 5126,
      "count": 303,
      "type": "VEC3",
      "max": [
        1.0,
        1.0,
        1.0
      ],
      "min": [
        -1.0,
        -1.0,
        -1.0
      ]
    },
    {
      "bufferView": 2,
      "componentType": 5126,
      "count": 303,
      "type": "VEC4",
      "max": [
        1.0,
        1.0,
        1.0,
        1.0
      ],
      "min": [
        -1.0,
        -1.0,
        -1.0,
        1.0
      ]
    },
    {
      "bufferView": 3,
      "componentType": 5126,
      "count": 303,
      "type": "VEC2",
      "max": [
        39.370079040527344,
        37.744583129882813
      ],
      "min": [
        -39.370079040527344,
        -44.915851593017578
      ]
    },
    {
      "bufferView": 4,
      "componentType": 5121,
      "count": 252,
      "type": "SCALAR",
      "max": [
        119.0
      ],
      "min": [
        0.0
      ]
    },
    {
      "bufferView": 5,
      "componentType": 5121,
      "count": 108,
      "type": "SCALAR",
      "max": [
        226.0
      ],
      "min": [
        120.0
      ]
    },
    {
      "bufferView": 6,
      "componentType": 5123,
      "count": 96,
      "type": "SCALAR",
      "max": [
        286.0
      ],
      "min": [
        227.0
      ]
    },
    {
      "bufferView": 7,
      "componentType": 5123,
      "count": 36,
      "type": "SCALAR",
      "max": [
        298.0
      ],
      "min": [
        17.0
      ]
    },
    {
      "bufferView": 8,
      "componentType": 5123,
      "count": 12,
      "type": "SCALAR",
      "max": [
        302.0
      ],
      "min": [
        79.0
      ]
    }
  ],
  "asset": {
    "version": "2.0"
  },
  "buffers": [
    {
      "uri": "grandStandCovered.bin",
      "byteLength": 15192
    }
  ],
  "bufferViews": [
    {
      "buffer": 0,
      "byteLength": 3636
    },
    {
      "buffer": 0,
      "byteOffset": 3636,
      "byteLength": 3636
    },
    {
      "buffer": 0,
      "byteOffset": 7272,
      "byteLength": 4848
    },
    {
      "buffer": 0,
      "byteOffset": 12120,
      "byteLength": 2424
    },
    {
      "buffer": 0,
      "byteOffset": 14544,
      "byteLength": 252
    },
    {
      "buffer": 0,
      "byteOffset": 14796,
      "byteLength": 108
    },
    {
      "buffer": 0,
      "byteOffset": 14904,
      "byteLength": 192
    },
    {
      "buffer": 0,
      "byteOffset": 15096,
      "byteLength": 72
    },
    {
      "buffer": 0,
      "byteOffset": 15168,
      "byteLength": 24
    }
  ],
  "materials": [
    {
      "pbrMetallicRoughness": {
        "baseColorFactor": [
          0.945098042,
          0.9490196,
          0.9647059,
          1.0
        ],
        "metallicFactor": 0.0
      },
      "name": "grey"
    },
    {
      "pbrMetallicRoughness": {
        "metallicFactor": 0.0
      },
      "name": "_defaultMat"
    },
    {
      "pbrMetallicRoughness": {
        "baseColorFactor": [
          0.9098039,
          0.333333343,
          0.3254902,
          1.0
        ],
        "metallicFactor": 0.0
      },
      "name": "red"
    },
    {
      "pbrMetallicRoughness": {
        "baseColorFactor": [
          0.266666681,
          0.266666681,
          0.266666681,
          1.0
        ],
        "metallicFactor": 0.0
      },
      "name": "road"
    },
    {
      "pbrMetallicRoughness": {
        "baseColorFactor": [
          0.298039228,
          0.3764706,
          0.466666669,
          1.0
        ],
        "metallicFactor": 0.0
      },
      "name": "glass"
    }
  ],
  "meshes": [
    {
      "primitives": [
        {
          "attributes": {
            "POSITION": 0,
            "NORMAL": 1,
            "TANGENT": 2,
            "TEXCOORD_0": 3
          },
          "indices": 4,
          "material": 0
        },
        {
          "attributes": {
            "POSITION": 0,
            "NORMAL": 1,
            "TANGENT": 2,
            "TEXCOORD_0": 3
          },
          "indices": 5,
          "material": 1
        },
        {
          "attributes": {
            "POSITION": 0,
            "NORMAL": 1,
            "TANGENT": 2,
            "TEXCOORD_0": 3
          },
          "indices": 6,
          "material": 2
        },
        {
          "attributes": {
            "POSITION": 0,
            "NORMAL": 1,
            "TANGENT": 2,
            "TEXCOORD_0": 3
          },
          "indices": 7,
          "material": 3
        },
        {
          "attributes": {
            "POSITION": 0,
            "NORMAL": 1,
            "TANGENT": 2,
            "TEXCOORD_0": 3
          },
          "indices": 8,
          "material": 4
        }
      ],
      "name": "grandStandCovered"
    }
  ],
  "nodes": [
    {
      "mesh": 0,
      "translation": [
        5.21348,
        0.0,
        3.138676
      ],
      "name": "grandStandCovered"
    }
  ],
  "scene": 0,
  "scenes": [
    {
      "nodes": [
        0
      ],
      "name": "grandStandCovered"
    }
  ]
}