{
  "accessors": [
    {
      "bufferView": 0,
      "componentType": 5126,
      "count": 244,
      "type": "VEC3",
      "max": [
        0.0,
        0.89626264572143555,
        1.0
      ],
      "min": [
        -1.0,
        0.0,
        0.0
      ]
    },
    {
      "bufferView": 1,
      "componentType": 5126,
      "count": 244,
      "type": "VEC3",
      "max": [
        1.0,
        1.0,
        1.0
      ],
      "min": [
        -1.0,
        -1.0,
        -1.0
      ]
    },
    {
      "bufferView": 2,
      "componentType": 5126,
      "count": 244,
      "type": "VEC4",
      "max": [
        1.0,
        1.0,
        1.0,
        1.0
      ],
      "min": [
        -1.0,
        -1.0,
        -1.0,
        1.0
      ]
    },
    {
      "bufferView": 3,
      "componentType": 5126,
      "count": 244,
      "type": "VEC2",
      "max": [
        39.370079040527344,
        1.0
      ],
      "min": [
        -39.370079040527344,
        -38.370079040527344
      ]
    },
    {
      "bufferView": 4,
      "componentType": 5121,
      "count": 174,
      "type": "SCALAR",
      "max": [
        77.0
      ],
      "min": [
        0.0
      ]
    },
    {
      "bufferView": 5,
      "componentType": 5121,
      "count": 102,
      "type": "SCALAR",
      "max": [
        179.0
      ],
      "min": [
        78.0
      ]
    },
    {
      "bufferView": 6,
      "componentType": 5121,
      "count": 96,
      "type": "SCALAR",
      "max": [
        239.0
      ],
      "min": [
        180.0
      ]
    },
    {
      "bufferView": 7,
      "componentType": 5121,
      "count": 12,
      "type": "SCALAR",
      "max": [
        243.0
      ],
      "min": [
        17.0
      ]
    }
  ],
  "asset": {
    "version": "2.0"
  },
  "buffers": [
    {
      "uri": "grandStand.bin",
      "byteLength": 12096
    }
  ],
  "bufferViews": [
    {
      "buffer": 0,
      "byteLength": 2928
    },
    {
      "buffer": 0,
      "byteOffset": 2928,
      "byteLength": 2928
    },
    {
      "buffer": 0,
      "byteOffset": 5856,
      "byteLength": 3904
    },
    {
      "buffer": 0,
      "byteOffset": 9760,
      "byteLength": 1952
    },
    {
      "buffer": 0,
      "byteOffset": 11712,
      "byteLength": 174
    },
    {
      "buffer": 0,
      "byteOffset": 11886,
      "byteLength": 102
    },
    {
      "buffer": 0,
      "byteOffset": 11988,
      "byteLength": 96
    },
    {
      "buffer": 0,
      "byteOffset": 12084,
      "byteLength": 12
    }
  ],
  "materials": [
    {
      "pbrMetallicRoughness": {
        "baseColorFactor": [
          0.945098042,
          0.9490196,
          0.9647059,
          1.0
        ],
        "metallicFactor": 0.0
      },
      "name": "grey"
    },
    {
      "pbrMetallicRoughness": {
        "metallicFactor": 0.0
      },
      "name": "_defaultMat"
    },
    {
      "pbrMetallicRoughness": {
        "baseColorFactor": [
          0.9098039,
          0.333333343,
          0.3254902,
          1.0
        ],
        "metallicFactor": 0.0
      },
      "name": "red"
    },
    {
      "pbrMetallicRoughness": {
        "baseColorFactor": [
          0.266666681,
          0.266666681,
          0.266666681,
          1.0
        ],
        "metallicFactor": 0.0
      },
      "name": "road"
    }
  ],
  "meshes": [
    {
      "primitives": [
        {
          "attributes": {
            "POSITION": 0,
            "NORMAL": 1,
            "TANGENT": 2,
            "TEXCOORD_0": 3
          },
          "indices": 4,
          "material": 0
        },
        {
          "attributes": {
            "POSITION": 0,
            "NORMAL": 1,
            "TANGENT": 2,
            "TEXCOORD_0": 3
          },
          "indices": 5,
          "material": 1
        },
        {
          "attributes": {
            "POSITION": 0,
            "NORMAL": 1,
            "TANGENT": 2,
            "TEXCOORD_0": 3
          },
          "indices": 6,
          "material": 2
        },
        {
          "attributes": {
            "POSITION": 0,
            "NORMAL": 1,
            "TANGENT": 2,
            "TEXCOORD_0": 3
          },
          "indices": 7,
          "material": 3
        }
      ],
      "name": "grandStand"
    }
  ],
  "nodes": [
    {
      "mesh": 0,
      "translation": [
        6.41348028,
        0.0,
        3.138676
      ],
      "name": "grandStand"
    }
  ],
  "scene": 0,
  "scenes": [
    {
      "nodes": [
        0
      ],
      "name": "grandStand"
    }
  ]
}