{
  "accessors": [
    {
      "bufferView": 0,
      "componentType": 5126,
      "count": 400,
      "type": "VEC3",
      "max": [
        0.035399999469518661,
        0.7134472131729126,
        0.017599999904632568
      ],
      "min": [
        -0.035399999469518661,
        0.0,
        -0.0910666212439537
      ]
    },
    {
      "bufferView": 1,
      "componentType": 5126,
      "count": 400,
      "type": "VEC3",
      "max": [
        1.0,
        1.0,
        1.0
      ],
      "min": [
        -1.0,
        -1.0,
        -1.0
      ]
    },
    {
      "bufferView": 2,
      "componentType": 5126,
      "count": 400,
      "type": "VEC4",
      "max": [
        1.0,
        0.0,
        1.0,
        1.0
      ],
      "min": [
        -1.0,
        0.0,
        -1.0,
        -1.0
      ]
    },
    {
      "bufferView": 3,
      "componentType": 5126,
      "count": 400,
      "type": "VEC2",
      "max": [
        3.5853002071380615,
        3.8285207748413086
      ],
      "min": [
        -3.5853002071380615,
        -27.088472366333008
      ]
    },
    {
      "bufferView": 4,
      "componentType": 5121,
      "count": 84,
      "type": "SCALAR",
      "max": [
        53.0
      ],
      "min": [
        0.0
      ]
    },
    {
      "bufferView": 5,
      "componentType": 5121,
      "count": 84,
      "type": "SCALAR",
      "max": [
        107.0
      ],
      "min": [
        54.0
      ]
    },
    {
      "bufferView": 6,
      "componentType": 5123,
      "count": 684,
      "type": "SCALAR",
      "max": [
        399.0
      ],
      "min": [
        108.0
      ]
    },
    {
      "bufferView": 7,
      "componentType": 5121,
      "count": 18,
      "type": "SCALAR",
      "max": [
        251.0
      ],
      "min": [
        233.0
      ]
    },
    {
      "bufferView": 8,
      "componentType": 5121,
      "count": 54,
      "type": "SCALAR",
      "max": [
        248.0
      ],
      "min": [
        217.0
      ]
    }
  ],
  "asset": {
    "version": "2.0"
  },
  "buffers": [
    {
      "uri": "lightRed.bin",
      "byteLength": 20808
    }
  ],
  "bufferViews": [
    {
      "buffer": 0,
      "byteLength": 4800
    },
    {
      "buffer": 0,
      "byteOffset": 4800,
      "byteLength": 4800
    },
    {
      "buffer": 0,
      "byteOffset": 9600,
      "byteLength": 6400
    },
    {
      "buffer": 0,
      "byteOffset": 16000,
      "byteLength": 3200
    },
    {
      "buffer": 0,
      "byteOffset": 19200,
      "byteLength": 84
    },
    {
      "buffer": 0,
      "byteOffset": 19284,
      "byteLength": 84
    },
    {
      "buffer": 0,
      "byteOffset": 19368,
      "byteLength": 1368
    },
    {
      "buffer": 0,
      "byteOffset": 20736,
      "byteLength": 18
    },
    {
      "buffer": 0,
      "byteOffset": 20754,
      "byteLength": 54
    }
  ],
  "materials": [
    {
      "pbrMetallicRoughness": {
        "metallicFactor": 0.0
      },
      "name": "_defaultMat"
    },
    {
      "pbrMetallicRoughness": {
        "baseColorFactor": [
          0.945098042,
          0.9490196,
          0.9647059,
          1.0
        ],
        "metallicFactor": 0.0
      },
      "name": "grey"
    },
    {
      "pbrMetallicRoughness": {
        "baseColorFactor": [
          0.266666681,
          0.266666681,
          0.266666681,
          1.0
        ],
        "metallicFactor": 0.0
      },
      "name": "road"
    },
    {
      "pbrMetallicRoughness": {
        "baseColorFactor": [
          0.9607843,
          0.7254902,
          0.258823544,
          1.0
        ],
        "metallicFactor": 0.0,
        "roughnessFactor": 0.5
      },
      "name": "pylon"
    },
    {
      "pbrMetallicRoughness": {
        "baseColorFactor": [
          0.9098039,
          0.333333343,
          0.3254902,
          1.0
        ],
        "metallicFactor": 0.0
      },
      "name": "red"
    }
  ],
  "meshes": [
    {
      "primitives": [
        {
          "attributes": {
            "POSITION": 0,
            "NORMAL": 1,
            "TANGENT": 2,
            "TEXCOORD_0": 3
          },
          "indices": 4,
          "material": 0
        },
        {
          "attributes": {
            "POSITION": 0,
            "NORMAL": 1,
            "TANGENT": 2,
            "TEXCOORD_0": 3
          },
          "indices": 5,
          "material": 1
        },
        {
          "attributes": {
            "POSITION": 0,
            "NORMAL": 1,
            "TANGENT": 2,
            "TEXCOORD_0": 3
          },
          "indices": 6,
          "material": 2
        },
        {
          "attributes": {
            "POSITION": 0,
            "NORMAL": 1,
            "TANGENT": 2,
            "TEXCOORD_0": 3
          },
          "indices": 7,
          "material": 3
        },
        {
          "attributes": {
            "POSITION": 0,
            "NORMAL": 1,
            "TANGENT": 2,
            "TEXCOORD_0": 3
          },
          "indices": 8,
          "material": 4
        }
      ],
      "name": "lightRed"
    }
  ],
  "nodes": [
    {
      "mesh": 0,
      "translation": [
        3.246446,
        0.0,
        -1.45161951
      ],
      "name": "lightRed"
    }
  ],
  "scene": 0,
  "scenes": [
    {
      "nodes": [
        0
      ],
      "name": "lightRed"
    }
  ]
}