{
  "accessors": [
    {
      "bufferView": 0,
      "componentType": 5126,
      "count": 672,
      "type": "VEC3",
      "max": [
        0.070799998939037323,
        0.68344724178314209,
        0.017599999904632568
      ],
      "min": [
        -0.070799998939037323,
        0.0,
        -0.0910666212439537
      ]
    },
    {
      "bufferView": 1,
      "componentType": 5126,
      "count": 672,
      "type": "VEC3",
      "max": [
        1.0,
        1.0,
        1.0
      ],
      "min": [
        -1.0,
        -1.0,
        -1.0
      ]
    },
    {
      "bufferView": 2,
      "componentType": 5126,
      "count": 672,
      "type": "VEC4",
      "max": [
        1.0,
        0.0,
        1.0,
        1.0
      ],
      "min": [
        -1.0,
        0.0,
        -1.0,
        -1.0
      ]
    },
    {
      "bufferView": 3,
      "componentType": 5126,
      "count": 672,
      "type": "VEC2",
      "max": [
        3.5853002071380615,
        3.8285207748413086
      ],
      "min": [
        -3.5853002071380615,
        -25.907371520996094
      ]
    },
    {
      "bufferView": 4,
      "componentType": 5121,
      "count": 108,
      "type": "SCALAR",
      "max": [
        60.0
      ],
      "min": [
        0.0
      ]
    },
    {
      "bufferView": 5,
      "componentType": 5121,
      "count": 108,
      "type": "SCALAR",
      "max": [
        121.0
      ],
      "min": [
        61.0
      ]
    },
    {
      "bufferView": 6,
      "componentType": 5123,
      "count": 1320,
      "type": "SCALAR",
      "max": [
        671.0
      ],
      "min": [
        122.0
      ]
    },
    {
      "bufferView": 7,
      "componentType": 5123,
      "count": 36,
      "type": "SCALAR",
      "max": [
        271.0
      ],
      "min": [
        219.0
      ]
    },
    {
      "bufferView": 8,
      "componentType": 5123,
      "count": 108,
      "type": "SCALAR",
      "max": [
        268.0
      ],
      "min": [
        203.0
      ]
    }
  ],
  "asset": {
    "version": "2.0"
  },
  "buffers": [
    {
      "uri": "lightRedDouble.bin",
      "byteLength": 35400
    }
  ],
  "bufferViews": [
    {
      "buffer": 0,
      "byteLength": 8064
    },
    {
      "buffer": 0,
      "byteOffset": 8064,
      "byteLength": 8064
    },
    {
      "buffer": 0,
      "byteOffset": 16128,
      "byteLength": 10752
    },
    {
      "buffer": 0,
      "byteOffset": 26880,
      "byteLength": 5376
    },
    {
      "buffer": 0,
      "byteOffset": 32256,
      "byteLength": 108
    },
    {
      "buffer": 0,
      "byteOffset": 32364,
      "byteLength": 108
    },
    {
      "buffer": 0,
      "byteOffset": 32472,
      "byteLength": 2640
    },
    {
      "buffer": 0,
      "byteOffset": 35112,
      "byteLength": 72
    },
    {
      "buffer": 0,
      "byteOffset": 35184,
      "byteLength": 216
    }
  ],
  "materials": [
    {
      "pbrMetallicRoughness": {
        "metallicFactor": 0.0
      },
      "name": "_defaultMat"
    },
    {
      "pbrMetallicRoughness": {
        "baseColorFactor": [
          0.945098042,
          0.9490196,
          0.9647059,
          1.0
        ],
        "metallicFactor": 0.0
      },
      "name": "grey"
    },
    {
      "pbrMetallicRoughness": {
        "baseColorFactor": [
          0.266666681,
          0.266666681,
          0.266666681,
          1.0
        ],
        "metallicFactor": 0.0
      },
      "name": "road"
    },
    {
      "pbrMetallicRoughness": {
        "baseColorFactor": [
          0.9607843,
          0.7254902,
          0.258823544,
          1.0
        ],
        "metallicFactor": 0.0,
        "roughnessFactor": 0.5
      },
      "name": "pylon"
    },
    {
      "pbrMetallicRoughness": {
        "baseColorFactor": [
          0.9098039,
          0.333333343,
          0.3254902,
          1.0
        ],
        "metallicFactor": 0.0
      },
      "name": "red"
    }
  ],
  "meshes": [
    {
      "primitives": [
        {
          "attributes": {
            "POSITION": 0,
            "NORMAL": 1,
            "TANGENT": 2,
            "TEXCOORD_0": 3
          },
          "indices": 4,
          "material": 0
        },
        {
          "attributes": {
            "POSITION": 0,
            "NORMAL": 1,
            "TANGENT": 2,
            "TEXCOORD_0": 3
          },
          "indices": 5,
          "material": 1
        },
        {
          "attributes": {
            "POSITION": 0,
            "NORMAL": 1,
            "TANGENT": 2,
            "TEXCOORD_0": 3
          },
          "indices": 6,
          "material": 2
        },
        {
          "attributes": {
            "POSITION": 0,
            "NORMAL": 1,
            "TANGENT": 2,
            "TEXCOORD_0": 3
          },
          "indices": 7,
          "material": 3
        },
        {
          "attributes": {
            "POSITION": 0,
            "NORMAL": 1,
            "TANGENT": 2,
            "TEXCOORD_0": 3
          },
          "indices": 8,
          "material": 4
        }
      ],
      "name": "lightRedDouble"
    }
  ],
  "nodes": [
    {
      "mesh": 0,
      "translation": [
        2.88644576,
        0.0,
        -1.45161951
      ],
      "name": "lightRedDouble"
    }
  ],
  "scene": 0,
  "scenes": [
    {
      "nodes": [
        0
      ],
      "name": "lightRedDouble"
    }
  ]
}