{
  "accessors": [
    {
      "bufferView": 0,
      "componentType": 5126,
      "count": 160,
      "type": "VEC3",
      "max": [
        0.43344756960868835,
        0.933447539806366,
        0.32999998331069946
      ],
      "min": [
        -1.4334475994110107,
        -2.4761062684178746E-16,
        0.0
      ]
    },
    {
      "bufferView": 1,
      "componentType": 5126,
      "count": 160,
      "type": "VEC3",
      "max": [
        0.99144488573074341,
        0.99144488573074341,
        1.0
      ],
      "min": [
        -0.99144488573074341,
        -1.0,
        -1.0
      ]
    },
    {
      "bufferView": 2,
      "componentType": 5126,
      "count": 160,
      "type": "VEC4",
      "max": [
        1.0,
        0.0,
        1.0,
        1.0
      ],
      "min": [
        -1.0,
        0.0,
        -1.0,
        1.0
      ]
    },
    {
      "bufferView": 3,
      "componentType": 5126,
      "count": 160,
      "type": "VEC2",
      "max": [
        56.434944152832031,
        25.313455581665039
      ],
      "min": [
        -56.434944152832031,
        -35.749904632568359
      ]
    },
    {
      "bufferView": 4,
      "componentType": 5121,
      "count": 132,
      "type": "SCALAR",
      "max": [
        75.0
      ],
      "min": [
        0.0
      ]
    },
    {
      "bufferView": 5,
      "componentType": 5121,
      "count": 12,
      "type": "SCALAR",
      "max": [
        83.0
      ],
      "min": [
        76.0
      ]
    },
    {
      "bufferView": 6,
      "componentType": 5121,
      "count": 168,
      "type": "SCALAR",
      "max": [
        159.0
      ],
      "min": [
        8.0
      ]
    }
  ],
  "asset": {
    "version": "2.0"
  },
  "buffers": [
    {
      "uri": "overheadRoundColored.bin",
      "byteLength": 7992
    }
  ],
  "bufferViews": [
    {
      "buffer": 0,
      "byteLength": 1920
    },
    {
      "buffer": 0,
      "byteOffset": 1920,
      "byteLength": 1920
    },
    {
      "buffer": 0,
      "byteOffset": 3840,
      "byteLength": 2560
    },
    {
      "buffer": 0,
      "byteOffset": 6400,
      "byteLength": 1280
    },
    {
      "buffer": 0,
      "byteOffset": 7680,
      "byteLength": 132
    },
    {
      "buffer": 0,
      "byteOffset": 7812,
      "byteLength": 12
    },
    {
      "buffer": 0,
      "byteOffset": 7824,
      "byteLength": 168
    }
  ],
  "materials": [
    {
      "pbrMetallicRoughness": {
        "baseColorFactor": [
          0.945098042,
          0.9490196,
          0.9647059,
          1.0
        ],
        "metallicFactor": 0.0
      },
      "name": "grey"
    },
    {
      "pbrMetallicRoughness": {
        "baseColorFactor": [
          0.266666681,
          0.266666681,
          0.266666681,
          1.0
        ],
        "metallicFactor": 0.0
      },
      "name": "road"
    },
    {
      "pbrMetallicRoughness": {
        "baseColorFactor": [
          0.9098039,
          0.333333343,
          0.3254902,
          1.0
        ],
        "metallicFactor": 0.0
      },
      "name": "red"
    }
  ],
  "meshes": [
    {
      "primitives": [
        {
          "attributes": {
            "POSITION": 0,
            "NORMAL": 1,
            "TANGENT": 2,
            "TEXCOORD_0": 3
          },
          "indices": 4,
          "material": 0
        },
        {
          "attributes": {
            "POSITION": 0,
            "NORMAL": 1,
            "TANGENT": 2,
            "TEXCOORD_0": 3
          },
          "indices": 5,
          "material": 1
        },
        {
          "attributes": {
            "POSITION": 0,
            "NORMAL": 1,
            "TANGENT": 2,
            "TEXCOORD_0": 3
          },
          "indices": 6,
          "material": 2
        }
      ],
      "name": "overheadRoundColored"
    }
  ],
  "nodes": [
    {
      "mesh": 0,
      "translation": [
        1.55137825,
        1.34811977E-16,
        2.11338115
      ],
      "name": "overheadRoundColored"
    }
  ],
  "scene": 0,
  "scenes": [
    {
      "nodes": [
        0
      ],
      "name": "overheadRoundColored"
    }
  ]
}