{
  "accessors": [
    {
      "bufferView": 0,
      "componentType": 5126,
      "count": 203,
      "type": "VEC3",
      "max": [
        0.12999999523162842,
        0.66820001602172852,
        8.482458984347685E-15
      ],
      "min": [
        -1.1299999952316284,
        0.0,
        -0.18999999761581421
      ]
    },
    {
      "bufferView": 1,
      "componentType": 5126,
      "count": 203,
      "type": "VEC3",
      "max": [
        1.0,
        1.0,
        1.0
      ],
      "min": [
        -1.0,
        -1.0,
        -1.0
      ]
    },
    {
      "bufferView": 2,
      "componentType": 5126,
      "count": 203,
      "type": "VEC4",
      "max": [
        1.0,
        0.0,
        1.0,
        1.0
      ],
      "min": [
        -1.0,
        0.0,
        -1.0,
        1.0
      ]
    },
    {
      "bufferView": 3,
      "componentType": 5126,
      "count": 203,
      "type": "VEC2",
      "max": [
        44.488189697265625,
        39.234699249267578
      ],
      "min": [
        -44.488189697265625,
        -25.307086944580078
      ]
    },
    {
      "bufferView": 4,
      "componentType": 5121,
      "count": 384,
      "type": "SCALAR",
      "max": [
        202.0
      ],
      "min": [
        0.0
      ]
    }
  ],
  "asset": {
    "version": "2.0"
  },
  "buffers": [
    {
      "uri": "overhead.bin",
      "byteLength": 10128
    }
  ],
  "bufferViews": [
    {
      "buffer": 0,
      "byteLength": 2436
    },
    {
      "buffer": 0,
      "byteOffset": 2436,
      "byteLength": 2436
    },
    {
      "buffer": 0,
      "byteOffset": 4872,
      "byteLength": 3248
    },
    {
      "buffer": 0,
      "byteOffset": 8120,
      "byteLength": 1624
    },
    {
      "buffer": 0,
      "byteOffset": 9744,
      "byteLength": 384
    }
  ],
  "materials": [
    {
      "pbrMetallicRoughness": {
        "baseColorFactor": [
          0.945098042,
          0.9490196,
          0.9647059,
          1.0
        ],
        "metallicFactor": 0.0
      },
      "name": "grey"
    }
  ],
  "meshes": [
    {
      "primitives": [
        {
          "attributes": {
            "POSITION": 0,
            "NORMAL": 1,
            "TANGENT": 2,
            "TEXCOORD_0": 3
          },
          "indices": 4,
          "material": 0
        }
      ],
      "name": "overhead"
    }
  ],
  "nodes": [
    {
      "mesh": 0,
      "translation": [
        -7.08359,
        3.947953E-17,
        -0.6724221
      ],
      "name": "overhead"
    }
  ],
  "scene": 0,
  "scenes": [
    {
      "nodes": [
        0
      ],
      "name": "overhead"
    }
  ]
}