{
  "accessors": [
    {
      "bufferView": 0,
      "componentType": 5126,
      "count": 194,
      "type": "VEC3",
      "max": [
        0.0,
        0.50999999046325684,
        1.0
      ],
      "min": [
        -1.0399999618530273,
        0.0,
        -0.039999999105930328
      ]
    },
    {
      "bufferView": 1,
      "componentType": 5126,
      "count": 194,
      "type": "VEC3",
      "max": [
        1.0,
        1.0,
        1.0
      ],
      "min": [
        -1.0,
        -1.0,
        -1.0
      ]
    },
    {
      "bufferView": 2,
      "componentType": 5126,
      "count": 194,
      "type": "VEC4",
      "max": [
        1.0,
        0.0,
        1.0,
        1.0
      ],
      "min": [
        -1.0,
        0.0,
        -1.0,
        1.0
      ]
    },
    {
      "bufferView": 3,
      "componentType": 5126,
      "count": 194,
      "type": "VEC2",
      "max": [
        40.944881439208984,
        2.5748031139373779
      ],
      "min": [
        -40.944881439208984,
        -38.370079040527344
      ]
    },
    {
      "bufferView": 4,
      "componentType": 5121,
      "count": 342,
      "type": "SCALAR",
      "max": [
        169.0
      ],
      "min": [
        0.0
      ]
    },
    {
      "bufferView": 5,
      "componentType": 5121,
      "count": 24,
      "type": "SCALAR",
      "max": [
        185.0
      ],
      "min": [
        170.0
      ]
    },
    {
      "bufferView": 6,
      "componentType": 5121,
      "count": 12,
      "type": "SCALAR",
      "max": [
        193.0
      ],
      "min": [
        186.0
      ]
    }
  ],
  "asset": {
    "version": "2.0"
  },
  "buffers": [
    {
      "uri": "pitsOfficeCorner.bin",
      "byteLength": 9690
    }
  ],
  "bufferViews": [
    {
      "buffer": 0,
      "byteLength": 2328
    },
    {
      "buffer": 0,
      "byteOffset": 2328,
      "byteLength": 2328
    },
    {
      "buffer": 0,
      "byteOffset": 4656,
      "byteLength": 3104
    },
    {
      "buffer": 0,
      "byteOffset": 7760,
      "byteLength": 1552
    },
    {
      "buffer": 0,
      "byteOffset": 9312,
      "byteLength": 342
    },
    {
      "buffer": 0,
      "byteOffset": 9654,
      "byteLength": 24
    },
    {
      "buffer": 0,
      "byteOffset": 9678,
      "byteLength": 12
    }
  ],
  "materials": [
    {
      "pbrMetallicRoughness": {
        "baseColorFactor": [
          0.945098042,
          0.9490196,
          0.9647059,
          1.0
        ],
        "metallicFactor": 0.0
      },
      "name": "grey"
    },
    {
      "pbrMetallicRoughness": {
        "baseColorFactor": [
          0.298039228,
          0.3764706,
          0.466666669,
          1.0
        ],
        "metallicFactor": 0.0
      },
      "name": "glass"
    },
    {
      "pbrMetallicRoughness": {
        "baseColorFactor": [
          0.9098039,
          0.333333343,
          0.3254902,
          1.0
        ],
        "metallicFactor": 0.0
      },
      "name": "red"
    }
  ],
  "meshes": [
    {
      "primitives": [
        {
          "attributes": {
            "POSITION": 0,
            "NORMAL": 1,
            "TANGENT": 2,
            "TEXCOORD_0": 3
          },
          "indices": 4,
          "material": 0
        },
        {
          "attributes": {
            "POSITION": 0,
            "NORMAL": 1,
            "TANGENT": 2,
            "TEXCOORD_0": 3
          },
          "indices": 5,
          "material": 1
        },
        {
          "attributes": {
            "POSITION": 0,
            "NORMAL": 1,
            "TANGENT": 2,
            "TEXCOORD_0": 3
          },
          "indices": 6,
          "material": 2
        }
      ],
      "name": "pitsOfficeCorner"
    }
  ],
  "nodes": [
    {
      "mesh": 0,
      "translation": [
        7.89348,
        1.04,
        3.138676
      ],
      "name": "pitsOfficeCorner"
    }
  ],
  "scene": 0,
  "scenes": [
    {
      "nodes": [
        0
      ],
      "name": "pitsOfficeCorner"
    }
  ]
}