{
  "accessors": [
    {
      "bufferView": 0,
      "componentType": 5126,
      "count": 138,
      "type": "VEC3",
      "max": [
        0.0,
        0.50999999046325684,
        1.0
      ],
      "min": [
        -1.0,
        0.0,
        -0.039999999105930328
      ]
    },
    {
      "bufferView": 1,
      "componentType": 5126,
      "count": 138,
      "type": "VEC3",
      "max": [
        1.0,
        1.0,
        1.0
      ],
      "min": [
        -1.0,
        -1.0,
        -1.0
      ]
    },
    {
      "bufferView": 2,
      "componentType": 5126,
      "count": 138,
      "type": "VEC4",
      "max": [
        1.0,
        0.0,
        1.0,
        1.0
      ],
      "min": [
        -1.0,
        0.0,
        -1.0,
        1.0
      ]
    },
    {
      "bufferView": 3,
      "componentType": 5126,
      "count": 138,
      "type": "VEC2",
      "max": [
        39.370079040527344,
        2.5748031139373779
      ],
      "min": [
        -39.370079040527344,
        -38.370079040527344
      ]
    },
    {
      "bufferView": 4,
      "componentType": 5121,
      "count": 216,
      "type": "SCALAR",
      "max": [
        111.0
      ],
      "min": [
        0.0
      ]
    },
    {
      "bufferView": 5,
      "componentType": 5121,
      "count": 30,
      "type": "SCALAR",
      "max": [
        123.0
      ],
      "min": [
        8.0
      ]
    },
    {
      "bufferView": 6,
      "componentType": 5121,
      "count": 12,
      "type": "SCALAR",
      "max": [
        131.0
      ],
      "min": [
        124.0
      ]
    },
    {
      "bufferView": 7,
      "componentType": 5121,
      "count": 6,
      "type": "SCALAR",
      "max": [
        137.0
      ],
      "min": [
        132.0
      ]
    }
  ],
  "asset": {
    "version": "2.0"
  },
  "buffers": [
    {
      "uri": "pitsOffice.bin",
      "byteLength": 6888
    }
  ],
  "bufferViews": [
    {
      "buffer": 0,
      "byteLength": 1656
    },
    {
      "buffer": 0,
      "byteOffset": 1656,
      "byteLength": 1656
    },
    {
      "buffer": 0,
      "byteOffset": 3312,
      "byteLength": 2208
    },
    {
      "buffer": 0,
      "byteOffset": 5520,
      "byteLength": 1104
    },
    {
      "buffer": 0,
      "byteOffset": 6624,
      "byteLength": 216
    },
    {
      "buffer": 0,
      "byteOffset": 6840,
      "byteLength": 30
    },
    {
      "buffer": 0,
      "byteOffset": 6870,
      "byteLength": 12
    },
    {
      "buffer": 0,
      "byteOffset": 6882,
      "byteLength": 6
    }
  ],
  "materials": [
    {
      "pbrMetallicRoughness": {
        "baseColorFactor": [
          0.945098042,
          0.9490196,
          0.9647059,
          1.0
        ],
        "metallicFactor": 0.0
      },
      "name": "grey"
    },
    {
      "pbrMetallicRoughness": {
        "baseColorFactor": [
          0.9098039,
          0.333333343,
          0.3254902,
          1.0
        ],
        "metallicFactor": 0.0
      },
      "name": "red"
    },
    {
      "pbrMetallicRoughness": {
        "baseColorFactor": [
          0.298039228,
          0.3764706,
          0.466666669,
          1.0
        ],
        "metallicFactor": 0.0
      },
      "name": "glass"
    },
    {
      "pbrMetallicRoughness": {
        "metallicFactor": 0.0
      },
      "name": "_defaultMat"
    }
  ],
  "meshes": [
    {
      "primitives": [
        {
          "attributes": {
            "POSITION": 0,
            "NORMAL": 1,
            "TANGENT": 2,
            "TEXCOORD_0": 3
          },
          "indices": 4,
          "material": 0
        },
        {
          "attributes": {
            "POSITION": 0,
            "NORMAL": 1,
            "TANGENT": 2,
            "TEXCOORD_0": 3
          },
          "indices": 5,
          "material": 1
        },
        {
          "attributes": {
            "POSITION": 0,
            "NORMAL": 1,
            "TANGENT": 2,
            "TEXCOORD_0": 3
          },
          "indices": 6,
          "material": 2
        },
        {
          "attributes": {
            "POSITION": 0,
            "NORMAL": 1,
            "TANGENT": 2,
            "TEXCOORD_0": 3
          },
          "indices": 7,
          "material": 3
        }
      ],
      "name": "pitsOffice"
    }
  ],
  "nodes": [
    {
      "mesh": 0,
      "translation": [
        9.63348,
        1.04,
        3.138676
      ],
      "name": "pitsOffice"
    }
  ],
  "scene": 0,
  "scenes": [
    {
      "nodes": [
        0
      ],
      "name": "pitsOffice"
    }
  ]
}