{
  "accessors": [
    {
      "bufferView": 0,
      "componentType": 5126,
      "count": 466,
      "type": "VEC3",
      "max": [
        -0.16106681525707245,
        0.54311484098434448,
        0.62000000476837158
      ],
      "min": [
        -0.75,
        0.0,
        0.20688514411449432
      ]
    },
    {
      "bufferView": 1,
      "componentType": 5126,
      "count": 466,
      "type": "VEC3",
      "max": [
        1.0,
        1.0,
        1.0
      ],
      "min": [
        -1.0,
        -0.989784300327301,
        -1.0
      ]
    },
    {
      "bufferView": 2,
      "componentType": 5126,
      "count": 466,
      "type": "VEC4",
      "max": [
        1.0,
        0.092295922338962555,
        1.0,
        1.0
      ],
      "min": [
        -1.0,
        -0.092295907437801361,
        -1.0,
        1.0
      ]
    },
    {
      "bufferView": 3,
      "componentType": 5126,
      "count": 466,
      "type": "VEC2",
      "max": [
        29.527559280395508,
        19.930418014526367
      ],
      "min": [
        -29.527559280395508,
        -28.695404052734375
      ]
    },
    {
      "bufferView": 4,
      "componentType": 5123,
      "count": 810,
      "type": "SCALAR",
      "max": [
        441.0
      ],
      "min": [
        0.0
      ]
    },
    {
      "bufferView": 5,
      "componentType": 5123,
      "count": 66,
      "type": "SCALAR",
      "max": [
        465.0
      ],
      "min": [
        442.0
      ]
    }
  ],
  "asset": {
    "version": "2.0"
  },
  "buffers": [
    {
      "uri": "radarEquipment.bin",
      "byteLength": 24120
    }
  ],
  "bufferViews": [
    {
      "buffer": 0,
      "byteLength": 5592
    },
    {
      "buffer": 0,
      "byteOffset": 5592,
      "byteLength": 5592
    },
    {
      "buffer": 0,
      "byteOffset": 11184,
      "byteLength": 7456
    },
    {
      "buffer": 0,
      "byteOffset": 18640,
      "byteLength": 3728
    },
    {
      "buffer": 0,
      "byteOffset": 22368,
      "byteLength": 1620
    },
    {
      "buffer": 0,
      "byteOffset": 23988,
      "byteLength": 132
    }
  ],
  "materials": [
    {
      "pbrMetallicRoughness": {
        "baseColorFactor": [
          0.945098042,
          0.9490196,
          0.9647059,
          1.0
        ],
        "metallicFactor": 0.0
      },
      "name": "grey"
    },
    {
      "pbrMetallicRoughness": {
        "baseColorFactor": [
          0.266666681,
          0.266666681,
          0.266666681,
          1.0
        ],
        "metallicFactor": 0.0
      },
      "name": "road"
    }
  ],
  "meshes": [
    {
      "primitives": [
        {
          "attributes": {
            "POSITION": 0,
            "NORMAL": 1,
            "TANGENT": 2,
            "TEXCOORD_0": 3
          },
          "indices": 4,
          "material": 0
        },
        {
          "attributes": {
            "POSITION": 0,
            "NORMAL": 1,
            "TANGENT": 2,
            "TEXCOORD_0": 3
          },
          "indices": 5,
          "material": 1
        }
      ],
      "name": "radarEquipment"
    }
  ],
  "nodes": [
    {
      "mesh": 0,
      "translation": [
        9.762488,
        0.0,
        1.49598968
      ],
      "name": "radarEquipment"
    }
  ],
  "scene": 0,
  "scenes": [
    {
      "nodes": [
        0
      ],
      "name": "radarEquipment"
    }
  ]
}