{
  "accessors": [
    {
      "bufferView": 0,
      "componentType": 5126,
      "count": 116,
      "type": "VEC3",
      "max": [
        2.671072151167516E-14,
        0.15999999642372131,
        1.0
      ],
      "min": [
        -0.05000000074505806,
        0.0,
        -1.4438228851431159E-14
      ]
    },
    {
      "bufferView": 1,
      "componentType": 5126,
      "count": 116,
      "type": "VEC3",
      "max": [
        1.0,
        1.0,
        1.0
      ],
      "min": [
        -1.0,
        -1.0,
        -1.0
      ]
    },
    {
      "bufferView": 2,
      "componentType": 5126,
      "count": 116,
      "type": "VEC4",
      "max": [
        1.0,
        0.0,
        1.0,
        1.0
      ],
      "min": [
        -1.0,
        0.0,
        -1.0,
        1.0
      ]
    },
    {
      "bufferView": 3,
      "componentType": 5126,
      "count": 116,
      "type": "VEC2",
      "max": [
        39.370079040527344,
        1.0
      ],
      "min": [
        -39.370079040527344,
        -38.370079040527344
      ]
    },
    {
      "bufferView": 4,
      "componentType": 5121,
      "count": 204,
      "type": "SCALAR",
      "max": [
        115.0
      ],
      "min": [
        0.0
      ]
    }
  ],
  "asset": {
    "version": "2.0"
  },
  "buffers": [
    {
      "uri": "rail.bin",
      "byteLength": 5772
    }
  ],
  "bufferViews": [
    {
      "buffer": 0,
      "byteLength": 1392
    },
    {
      "buffer": 0,
      "byteOffset": 1392,
      "byteLength": 1392
    },
    {
      "buffer": 0,
      "byteOffset": 2784,
      "byteLength": 1856
    },
    {
      "buffer": 0,
      "byteOffset": 4640,
      "byteLength": 928
    },
    {
      "buffer": 0,
      "byteOffset": 5568,
      "byteLength": 204
    }
  ],
  "materials": [
    {
      "pbrMetallicRoughness": {
        "baseColorFactor": [
          0.945098042,
          0.9490196,
          0.9647059,
          1.0
        ],
        "metallicFactor": 0.0
      },
      "name": "grey"
    }
  ],
  "meshes": [
    {
      "primitives": [
        {
          "attributes": {
            "POSITION": 0,
            "NORMAL": 1,
            "TANGENT": 2,
            "TEXCOORD_0": 3
          },
          "indices": 4,
          "material": 0
        }
      ],
      "name": "rail"
    }
  ],
  "nodes": [
    {
      "mesh": 0,
      "rotation": [
        0.0,
        -0.7071068,
        0.0,
        0.7071068
      ],
      "translation": [
        3.54922152,
        0.0,
        -3.17807937
      ],
      "name": "rail"
    }
  ],
  "scene": 0,
  "scenes": [
    {
      "nodes": [
        0
      ],
      "name": "rail"
    }
  ]
}