{
  "accessors": [
    {
      "bufferView": 0,
      "componentType": 5126,
      "count": 288,
      "type": "VEC3",
      "max": [
        0.0,
        0.66820001602172852,
        2.0
      ],
      "min": [
        -1.2599999904632568,
        0.0,
        0.0
      ]
    },
    {
      "bufferView": 1,
      "componentType": 5126,
      "count": 288,
      "type": "VEC3",
      "max": [
        1.0,
        1.0,
        1.0
      ],
      "min": [
        -1.0,
        -1.0,
        -1.0
      ]
    },
    {
      "bufferView": 2,
      "componentType": 5126,
      "count": 288,
      "type": "VEC4",
      "max": [
        1.0,
        0.0,
        1.0,
        1.0
      ],
      "min": [
        -1.0,
        0.0,
        -1.0,
        1.0
      ]
    },
    {
      "bufferView": 3,
      "componentType": 5126,
      "count": 288,
      "type": "VEC2",
      "max": [
        78.740158081054688,
        44.341850280761719
      ],
      "min": [
        -78.740158081054688,
        -77.740158081054688
      ]
    },
    {
      "bufferView": 4,
      "componentType": 5123,
      "count": 498,
      "type": "SCALAR",
      "max": [
        263.0
      ],
      "min": [
        0.0
      ]
    },
    {
      "bufferView": 5,
      "componentType": 5123,
      "count": 24,
      "type": "SCALAR",
      "max": [
        275.0
      ],
      "min": [
        264.0
      ]
    },
    {
      "bufferView": 6,
      "componentType": 5123,
      "count": 24,
      "type": "SCALAR",
      "max": [
        287.0
      ],
      "min": [
        200.0
      ]
    }
  ],
  "asset": {
    "version": "2.0"
  },
  "buffers": [
    {
      "uri": "roadStart.bin",
      "byteLength": 14916
    }
  ],
  "bufferViews": [
    {
      "buffer": 0,
      "byteLength": 3456
    },
    {
      "buffer": 0,
      "byteOffset": 3456,
      "byteLength": 3456
    },
    {
      "buffer": 0,
      "byteOffset": 6912,
      "byteLength": 4608
    },
    {
      "buffer": 0,
      "byteOffset": 11520,
      "byteLength": 2304
    },
    {
      "buffer": 0,
      "byteOffset": 13824,
      "byteLength": 996
    },
    {
      "buffer": 0,
      "byteOffset": 14820,
      "byteLength": 48
    },
    {
      "buffer": 0,
      "byteOffset": 14868,
      "byteLength": 48
    }
  ],
  "materials": [
    {
      "pbrMetallicRoughness": {
        "baseColorFactor": [
          0.945098042,
          0.9490196,
          0.9647059,
          1.0
        ],
        "metallicFactor": 0.0
      },
      "name": "grey"
    },
    {
      "pbrMetallicRoughness": {
        "baseColorFactor": [
          0.3019608,
          0.56078434,
          0.431372553,
          1.0
        ],
        "metallicFactor": 0.0
      },
      "name": "grass"
    },
    {
      "pbrMetallicRoughness": {
        "baseColorFactor": [
          0.266666681,
          0.266666681,
          0.266666681,
          1.0
        ],
        "metallicFactor": 0.0
      },
      "name": "road"
    }
  ],
  "meshes": [
    {
      "primitives": [
        {
          "attributes": {
            "POSITION": 0,
            "NORMAL": 1,
            "TANGENT": 2,
            "TEXCOORD_0": 3
          },
          "indices": 4,
          "material": 0
        },
        {
          "attributes": {
            "POSITION": 0,
            "NORMAL": 1,
            "TANGENT": 2,
            "TEXCOORD_0": 3
          },
          "indices": 5,
          "material": 1
        },
        {
          "attributes": {
            "POSITION": 0,
            "NORMAL": 1,
            "TANGENT": 2,
            "TEXCOORD_0": 3
          },
          "indices": 6,
          "material": 2
        }
      ],
      "name": "roadStart"
    }
  ],
  "nodes": [
    {
      "mesh": 0,
      "translation": [
        -5.493591,
        3.947953E-17,
        -3.322422
      ],
      "name": "roadStart"
    }
  ],
  "scene": 0,
  "scenes": [
    {
      "nodes": [
        0
      ],
      "name": "roadStart"
    }
  ]
}