{
  "accessors": [
    {
      "bufferView": 0,
      "componentType": 5126,
      "count": 130,
      "type": "VEC3",
      "max": [
        0.20999999344348907,
        0.019999999552965164,
        1.2099999189376831
      ],
      "min": [
        -1.0,
        0.0,
        -5.7915342443690121E-13
      ]
    },
    {
      "bufferView": 1,
      "componentType": 5126,
      "count": 130,
      "type": "VEC3",
      "max": [
        0.99785894155502319,
        1.0,
        0.99785894155502319
      ],
      "min": [
        -1.0,
        0.0,
        -1.0
      ]
    },
    {
      "bufferView": 2,
      "componentType": 5126,
      "count": 130,
      "type": "VEC4",
      "max": [
        0.99785894155502319,
        0.0,
        1.0,
        1.0
      ],
      "min": [
        -1.0,
        0.0,
        -0.99785894155502319,
        1.0
      ]
    },
    {
      "bufferView": 3,
      "componentType": 5126,
      "count": 130,
      "type": "VEC2",
      "max": [
        47.637794494628906,
        1.0
      ],
      "min": [
        -42.401443481445313,
        -46.637794494628906
      ]
    },
    {
      "bufferView": 4,
      "componentType": 5121,
      "count": 114,
      "type": "SCALAR",
      "max": [
        75.0
      ],
      "min": [
        0.0
      ]
    },
    {
      "bufferView": 5,
      "componentType": 5121,
      "count": 114,
      "type": "SCALAR",
      "max": [
        129.0
      ],
      "min": [
        8.0
      ]
    }
  ],
  "asset": {
    "version": "2.0"
  },
  "buffers": [
    {
      "uri": "roadCornerSmallBorder.bin",
      "byteLength": 6468
    }
  ],
  "bufferViews": [
    {
      "buffer": 0,
      "byteLength": 1560
    },
    {
      "buffer": 0,
      "byteOffset": 1560,
      "byteLength": 1560
    },
    {
      "buffer": 0,
      "byteOffset": 3120,
      "byteLength": 2080
    },
    {
      "buffer": 0,
      "byteOffset": 5200,
      "byteLength": 1040
    },
    {
      "buffer": 0,
      "byteOffset": 6240,
      "byteLength": 114
    },
    {
      "buffer": 0,
      "byteOffset": 6354,
      "byteLength": 114
    }
  ],
  "materials": [
    {
      "pbrMetallicRoughness": {
        "metallicFactor": 0.0
      },
      "name": "white"
    },
    {
      "pbrMetallicRoughness": {
        "baseColorFactor": [
          0.9098039,
          0.333333343,
          0.3254902,
          1.0
        ],
        "metallicFactor": 0.0
      },
      "name": "red"
    }
  ],
  "meshes": [
    {
      "primitives": [
        {
          "attributes": {
            "POSITION": 0,
            "NORMAL": 1,
            "TANGENT": 2,
            "TEXCOORD_0": 3
          },
          "indices": 4,
          "material": 0
        },
        {
          "attributes": {
            "POSITION": 0,
            "NORMAL": 1,
            "TANGENT": 2,
            "TEXCOORD_0": 3
          },
          "indices": 5,
          "material": 1
        }
      ],
      "name": "roadCornerSmallBorder"
    }
  ],
  "nodes": [
    {
      "mesh": 0,
      "translation": [
        9.413104,
        0.0,
        -0.622422159
      ],
      "name": "roadCornerSmallBorder"
    }
  ],
  "scene": 0,
  "scenes": [
    {
      "nodes": [
        0
      ],
      "name": "roadCornerSmallBorder"
    }
  ]
}