{
  "accessors": [
    {
      "bufferView": 0,
      "componentType": 5126,
      "count": 626,
      "type": "VEC3",
      "max": [
        0.5,
        0.019999999552965164,
        2.0
      ],
      "min": [
        -1.0,
        0.0,
        0.0
      ]
    },
    {
      "bufferView": 1,
      "componentType": 5126,
      "count": 626,
      "type": "VEC3",
      "max": [
        0.99979168176651,
        1.0,
        0.452478289604187
      ],
      "min": [
        -0.99979168176651,
        0.0,
        -0.452478289604187
      ]
    },
    {
      "bufferView": 2,
      "componentType": 5126,
      "count": 626,
      "type": "VEC4",
      "max": [
        0.452478289604187,
        0.0,
        0.99979168176651,
        1.0
      ],
      "min": [
        -1.0,
        0.0,
        -0.99979168176651,
        1.0
      ]
    },
    {
      "bufferView": 3,
      "componentType": 5126,
      "count": 626,
      "type": "VEC2",
      "max": [
        79.001129150390625,
        1.0
      ],
      "min": [
        -79.059967041015625,
        -77.740158081054688
      ]
    },
    {
      "bufferView": 4,
      "componentType": 5121,
      "count": 144,
      "type": "SCALAR",
      "max": [
        49.0
      ],
      "min": [
        0.0
      ]
    },
    {
      "bufferView": 5,
      "componentType": 5123,
      "count": 864,
      "type": "SCALAR",
      "max": [
        525.0
      ],
      "min": [
        50.0
      ]
    },
    {
      "bufferView": 6,
      "componentType": 5123,
      "count": 288,
      "type": "SCALAR",
      "max": [
        625.0
      ],
      "min": [
        526.0
      ]
    }
  ],
  "asset": {
    "version": "2.0"
  },
  "buffers": [
    {
      "uri": "roadCurved.bin",
      "byteLength": 32496
    }
  ],
  "bufferViews": [
    {
      "buffer": 0,
      "byteLength": 7512
    },
    {
      "buffer": 0,
      "byteOffset": 7512,
      "byteLength": 7512
    },
    {
      "buffer": 0,
      "byteOffset": 15024,
      "byteLength": 10016
    },
    {
      "buffer": 0,
      "byteOffset": 25040,
      "byteLength": 5008
    },
    {
      "buffer": 0,
      "byteOffset": 30048,
      "byteLength": 144
    },
    {
      "buffer": 0,
      "byteOffset": 30192,
      "byteLength": 1728
    },
    {
      "buffer": 0,
      "byteOffset": 31920,
      "byteLength": 576
    }
  ],
  "materials": [
    {
      "pbrMetallicRoughness": {
        "baseColorFactor": [
          0.266666681,
          0.266666681,
          0.266666681,
          1.0
        ],
        "metallicFactor": 0.0
      },
      "name": "road"
    },
    {
      "pbrMetallicRoughness": {
        "baseColorFactor": [
          0.945098042,
          0.9490196,
          0.9647059,
          1.0
        ],
        "metallicFactor": 0.0
      },
      "name": "grey"
    },
    {
      "pbrMetallicRoughness": {
        "baseColorFactor": [
          0.3019608,
          0.56078434,
          0.431372553,
          1.0
        ],
        "metallicFactor": 0.0
      },
      "name": "grass"
    }
  ],
  "meshes": [
    {
      "primitives": [
        {
          "attributes": {
            "POSITION": 0,
            "NORMAL": 1,
            "TANGENT": 2,
            "TEXCOORD_0": 3
          },
          "indices": 4,
          "material": 0
        },
        {
          "attributes": {
            "POSITION": 0,
            "NORMAL": 1,
            "TANGENT": 2,
            "TEXCOORD_0": 3
          },
          "indices": 5,
          "material": 1
        },
        {
          "attributes": {
            "POSITION": 0,
            "NORMAL": 1,
            "TANGENT": 2,
            "TEXCOORD_0": 3
          },
          "indices": 6,
          "material": 2
        }
      ],
      "name": "roadCurved"
    }
  ],
  "nodes": [
    {
      "mesh": 0,
      "translation": [
        -8.95359,
        3.947953E-17,
        -3.322422
      ],
      "name": "roadCurved"
    }
  ],
  "scene": 0,
  "scenes": [
    {
      "nodes": [
        0
      ],
      "name": "roadCurved"
    }
  ]
}