{
  "accessors": [
    {
      "bufferView": 0,
      "componentType": 5126,
      "count": 655,
      "type": "VEC3",
      "max": [
        0.0,
        0.51999998092651367,
        2.0
      ],
      "min": [
        -1.0,
        0.0,
        0.0
      ]
    },
    {
      "bufferView": 1,
      "componentType": 5126,
      "count": 655,
      "type": "VEC3",
      "max": [
        1.0,
        0.99979168176651,
        0.0
      ],
      "min": [
        -1.0,
        0.0,
        -0.452478289604187
      ]
    },
    {
      "bufferView": 2,
      "componentType": 5126,
      "count": 655,
      "type": "VEC4",
      "max": [
        0.0,
        0.0,
        1.0,
        1.0
      ],
      "min": [
        -1.0,
        0.0,
        -1.0,
        1.0
      ]
    },
    {
      "bufferView": 3,
      "componentType": 5126,
      "count": 655,
      "type": "VEC2",
      "max": [
        78.740158081054688,
        1.0
      ],
      "min": [
        -78.740158081054688,
        -78.14166259765625
      ]
    },
    {
      "bufferView": 4,
      "componentType": 5123,
      "count": 831,
      "type": "SCALAR",
      "max": [
        376.0
      ],
      "min": [
        0.0
      ]
    },
    {
      "bufferView": 5,
      "componentType": 5123,
      "count": 282,
      "type": "SCALAR",
      "max": [
        562.0
      ],
      "min": [
        377.0
      ]
    },
    {
      "bufferView": 6,
      "componentType": 5123,
      "count": 138,
      "type": "SCALAR",
      "max": [
        654.0
      ],
      "min": [
        563.0
      ]
    }
  ],
  "asset": {
    "version": "2.0"
  },
  "buffers": [
    {
      "uri": "roadRampLongCurved.bin",
      "byteLength": 33942
    }
  ],
  "bufferViews": [
    {
      "buffer": 0,
      "byteLength": 7860
    },
    {
      "buffer": 0,
      "byteOffset": 7860,
      "byteLength": 7860
    },
    {
      "buffer": 0,
      "byteOffset": 15720,
      "byteLength": 10480
    },
    {
      "buffer": 0,
      "byteOffset": 26200,
      "byteLength": 5240
    },
    {
      "buffer": 0,
      "byteOffset": 31440,
      "byteLength": 1662
    },
    {
      "buffer": 0,
      "byteOffset": 33102,
      "byteLength": 564
    },
    {
      "buffer": 0,
      "byteOffset": 33666,
      "byteLength": 276
    }
  ],
  "materials": [
    {
      "pbrMetallicRoughness": {
        "baseColorFactor": [
          0.945098042,
          0.9490196,
          0.9647059,
          1.0
        ],
        "metallicFactor": 0.0
      },
      "name": "grey"
    },
    {
      "pbrMetallicRoughness": {
        "baseColorFactor": [
          0.3019608,
          0.56078434,
          0.431372553,
          1.0
        ],
        "metallicFactor": 0.0
      },
      "name": "grass"
    },
    {
      "pbrMetallicRoughness": {
        "baseColorFactor": [
          0.266666681,
          0.266666681,
          0.266666681,
          1.0
        ],
        "metallicFactor": 0.0
      },
      "name": "road"
    }
  ],
  "meshes": [
    {
      "primitives": [
        {
          "attributes": {
            "POSITION": 0,
            "NORMAL": 1,
            "TANGENT": 2,
            "TEXCOORD_0": 3
          },
          "indices": 4,
          "material": 0
        },
        {
          "attributes": {
            "POSITION": 0,
            "NORMAL": 1,
            "TANGENT": 2,
            "TEXCOORD_0": 3
          },
          "indices": 5,
          "material": 1
        },
        {
          "attributes": {
            "POSITION": 0,
            "NORMAL": 1,
            "TANGENT": 2,
            "TEXCOORD_0": 3
          },
          "indices": 6,
          "material": 2
        }
      ],
      "name": "roadRampLongCurved"
    }
  ],
  "nodes": [
    {
      "mesh": 0,
      "translation": [
        -5.62359047,
        0.0,
        -0.9624222
      ],
      "name": "roadRampLongCurved"
    }
  ],
  "scene": 0,
  "scenes": [
    {
      "nodes": [
        0
      ],
      "name": "roadRampLongCurved"
    }
  ]
}