{
  "accessors": [
    {
      "bufferView": 0,
      "componentType": 5126,
      "count": 45,
      "type": "VEC3",
      "max": [
        0.0,
        0.019999999552965164,
        1.0
      ],
      "min": [
        -1.0,
        0.0,
        0.0
      ]
    },
    {
      "bufferView": 1,
      "componentType": 5126,
      "count": 45,
      "type": "VEC3",
      "max": [
        1.0,
        1.0,
        0.0
      ],
      "min": [
        -1.0,
        0.0,
        0.0
      ]
    },
    {
      "bufferView": 2,
      "componentType": 5126,
      "count": 45,
      "type": "VEC4",
      "max": [
        0.0,
        0.0,
        1.0,
        1.0
      ],
      "min": [
        -1.0,
        0.0,
        -1.0,
        1.0
      ]
    },
    {
      "bufferView": 3,
      "componentType": 5126,
      "count": 45,
      "type": "VEC2",
      "max": [
        39.370079040527344,
        1.0
      ],
      "min": [
        -39.370079040527344,
        -38.370079040527344
      ]
    },
    {
      "bufferView": 4,
      "componentType": 5121,
      "count": 12,
      "type": "SCALAR",
      "max": [
        7.0
      ],
      "min": [
        0.0
      ]
    },
    {
      "bufferView": 5,
      "componentType": 5121,
      "count": 57,
      "type": "SCALAR",
      "max": [
        40.0
      ],
      "min": [
        8.0
      ]
    },
    {
      "bufferView": 6,
      "componentType": 5121,
      "count": 39,
      "type": "SCALAR",
      "max": [
        44.0
      ],
      "min": [
        32.0
      ]
    }
  ],
  "asset": {
    "version": "2.0"
  },
  "buffers": [
    {
      "uri": "roadStraightArrow.bin",
      "byteLength": 2268
    }
  ],
  "bufferViews": [
    {
      "buffer": 0,
      "byteLength": 540
    },
    {
      "buffer": 0,
      "byteOffset": 540,
      "byteLength": 540
    },
    {
      "buffer": 0,
      "byteOffset": 1080,
      "byteLength": 720
    },
    {
      "buffer": 0,
      "byteOffset": 1800,
      "byteLength": 360
    },
    {
      "buffer": 0,
      "byteOffset": 2160,
      "byteLength": 12
    },
    {
      "buffer": 0,
      "byteOffset": 2172,
      "byteLength": 57
    },
    {
      "buffer": 0,
      "byteOffset": 2229,
      "byteLength": 39
    }
  ],
  "materials": [
    {
      "pbrMetallicRoughness": {
        "baseColorFactor": [
          0.3019608,
          0.56078434,
          0.431372553,
          1.0
        ],
        "metallicFactor": 0.0
      },
      "name": "grass"
    },
    {
      "pbrMetallicRoughness": {
        "baseColorFactor": [
          0.945098042,
          0.9490196,
          0.9647059,
          1.0
        ],
        "metallicFactor": 0.0
      },
      "name": "grey"
    },
    {
      "pbrMetallicRoughness": {
        "baseColorFactor": [
          0.266666681,
          0.266666681,
          0.266666681,
          1.0
        ],
        "metallicFactor": 0.0
      },
      "name": "road"
    }
  ],
  "meshes": [
    {
      "primitives": [
        {
          "attributes": {
            "POSITION": 0,
            "NORMAL": 1,
            "TANGENT": 2,
            "TEXCOORD_0": 3
          },
          "indices": 4,
          "material": 0
        },
        {
          "attributes": {
            "POSITION": 0,
            "NORMAL": 1,
            "TANGENT": 2,
            "TEXCOORD_0": 3
          },
          "indices": 5,
          "material": 1
        },
        {
          "attributes": {
            "POSITION": 0,
            "NORMAL": 1,
            "TANGENT": 2,
            "TEXCOORD_0": 3
          },
          "indices": 6,
          "material": 2
        }
      ],
      "name": "roadStraightArrow"
    }
  ],
  "nodes": [
    {
      "mesh": 0,
      "translation": [
        -1.98359036,
        0.0,
        -2.32242227
      ],
      "name": "roadStraightArrow"
    }
  ],
  "scene": 0,
  "scenes": [
    {
      "nodes": [
        0
      ],
      "name": "roadStraightArrow"
    }
  ]
}