{
  "accessors": [
    {
      "bufferView": 0,
      "componentType": 5126,
      "count": 133,
      "type": "VEC3",
      "max": [
        0.20999999344348907,
        0.019999999552965164,
        3.2100000381469727
      ],
      "min": [
        -3.0,
        0.0,
        0.0
      ]
    },
    {
      "bufferView": 1,
      "componentType": 5126,
      "count": 133,
      "type": "VEC3",
      "max": [
        0.99785894155502319,
        1.0,
        0.99785894155502319
      ],
      "min": [
        -1.0,
        0.0,
        -1.0
      ]
    },
    {
      "bufferView": 2,
      "componentType": 5126,
      "count": 133,
      "type": "VEC4",
      "max": [
        0.99785894155502319,
        0.0,
        1.0,
        1.0
      ],
      "min": [
        -1.0,
        0.0,
        -0.99785894155502319,
        1.0
      ]
    },
    {
      "bufferView": 3,
      "componentType": 5126,
      "count": 133,
      "type": "VEC2",
      "max": [
        126.37795257568359,
        1.0
      ],
      "min": [
        -126.12286376953125,
        -125.37795257568359
      ]
    },
    {
      "bufferView": 4,
      "componentType": 5121,
      "count": 114,
      "type": "SCALAR",
      "max": [
        75.0
      ],
      "min": [
        0.0
      ]
    },
    {
      "bufferView": 5,
      "componentType": 5121,
      "count": 123,
      "type": "SCALAR",
      "max": [
        132.0
      ],
      "min": [
        8.0
      ]
    }
  ],
  "asset": {
    "version": "2.0"
  },
  "buffers": [
    {
      "uri": "roadCornerLargerBorder.bin",
      "byteLength": 6621
    }
  ],
  "bufferViews": [
    {
      "buffer": 0,
      "byteLength": 1596
    },
    {
      "buffer": 0,
      "byteOffset": 1596,
      "byteLength": 1596
    },
    {
      "buffer": 0,
      "byteOffset": 3192,
      "byteLength": 2128
    },
    {
      "buffer": 0,
      "byteOffset": 5320,
      "byteLength": 1064
    },
    {
      "buffer": 0,
      "byteOffset": 6384,
      "byteLength": 114
    },
    {
      "buffer": 0,
      "byteOffset": 6498,
      "byteLength": 123
    }
  ],
  "materials": [
    {
      "pbrMetallicRoughness": {
        "baseColorFactor": [
          0.9098039,
          0.333333343,
          0.3254902,
          1.0
        ],
        "metallicFactor": 0.0
      },
      "name": "red"
    },
    {
      "pbrMetallicRoughness": {
        "metallicFactor": 0.0
      },
      "name": "white"
    }
  ],
  "meshes": [
    {
      "primitives": [
        {
          "attributes": {
            "POSITION": 0,
            "NORMAL": 1,
            "TANGENT": 2,
            "TEXCOORD_0": 3
          },
          "indices": 4,
          "material": 0
        },
        {
          "attributes": {
            "POSITION": 0,
            "NORMAL": 1,
            "TANGENT": 2,
            "TEXCOORD_0": 3
          },
          "indices": 5,
          "material": 1
        }
      ],
      "name": "roadCornerLargerBorder"
    }
  ],
  "nodes": [
    {
      "mesh": 0,
      "translation": [
        5.63640976,
        0.0,
        -0.622422159
      ],
      "name": "roadCornerLargerBorder"
    }
  ],
  "scene": 0,
  "scenes": [
    {
      "nodes": [
        0
      ],
      "name": "roadCornerLargerBorder"
    }
  ]
}