{
  "accessors": [
    {
      "bufferView": 0,
      "componentType": 5126,
      "count": 156,
      "type": "VEC3",
      "max": [
        0.0,
        0.10000000149011612,
        2.0
      ],
      "min": [
        -1.0,
        0.0,
        0.0
      ]
    },
    {
      "bufferView": 1,
      "componentType": 5126,
      "count": 156,
      "type": "VEC3",
      "max": [
        1.0,
        1.0,
        0.30477571487426758
      ],
      "min": [
        -1.0,
        0.0,
        -0.30477571487426758
      ]
    },
    {
      "bufferView": 2,
      "componentType": 5126,
      "count": 156,
      "type": "VEC4",
      "max": [
        1.0,
        0.0,
        1.0,
        1.0
      ],
      "min": [
        -1.0,
        0.0,
        -1.0,
        1.0
      ]
    },
    {
      "bufferView": 3,
      "componentType": 5126,
      "count": 156,
      "type": "VEC2",
      "max": [
        78.740158081054688,
        57.245521545410156
      ],
      "min": [
        -78.740158081054688,
        -77.740158081054688
      ]
    },
    {
      "bufferView": 4,
      "componentType": 5121,
      "count": 72,
      "type": "SCALAR",
      "max": [
        47.0
      ],
      "min": [
        0.0
      ]
    },
    {
      "bufferView": 5,
      "componentType": 5121,
      "count": 180,
      "type": "SCALAR",
      "max": [
        135.0
      ],
      "min": [
        48.0
      ]
    },
    {
      "bufferView": 6,
      "componentType": 5121,
      "count": 30,
      "type": "SCALAR",
      "max": [
        155.0
      ],
      "min": [
        136.0
      ]
    }
  ],
  "asset": {
    "version": "2.0"
  },
  "buffers": [
    {
      "uri": "roadBump.bin",
      "byteLength": 7770
    }
  ],
  "bufferViews": [
    {
      "buffer": 0,
      "byteLength": 1872
    },
    {
      "buffer": 0,
      "byteOffset": 1872,
      "byteLength": 1872
    },
    {
      "buffer": 0,
      "byteOffset": 3744,
      "byteLength": 2496
    },
    {
      "buffer": 0,
      "byteOffset": 6240,
      "byteLength": 1248
    },
    {
      "buffer": 0,
      "byteOffset": 7488,
      "byteLength": 72
    },
    {
      "buffer": 0,
      "byteOffset": 7560,
      "byteLength": 180
    },
    {
      "buffer": 0,
      "byteOffset": 7740,
      "byteLength": 30
    }
  ],
  "materials": [
    {
      "pbrMetallicRoughness": {
        "baseColorFactor": [
          0.3019608,
          0.56078434,
          0.431372553,
          1.0
        ],
        "metallicFactor": 0.0
      },
      "name": "grass"
    },
    {
      "pbrMetallicRoughness": {
        "baseColorFactor": [
          0.945098042,
          0.9490196,
          0.9647059,
          1.0
        ],
        "metallicFactor": 0.0
      },
      "name": "grey"
    },
    {
      "pbrMetallicRoughness": {
        "baseColorFactor": [
          0.266666681,
          0.266666681,
          0.266666681,
          1.0
        ],
        "metallicFactor": 0.0
      },
      "name": "road"
    }
  ],
  "meshes": [
    {
      "primitives": [
        {
          "attributes": {
            "POSITION": 0,
            "NORMAL": 1,
            "TANGENT": 2,
            "TEXCOORD_0": 3
          },
          "indices": 4,
          "material": 0
        },
        {
          "attributes": {
            "POSITION": 0,
            "NORMAL": 1,
            "TANGENT": 2,
            "TEXCOORD_0": 3
          },
          "indices": 5,
          "material": 1
        },
        {
          "attributes": {
            "POSITION": 0,
            "NORMAL": 1,
            "TANGENT": 2,
            "TEXCOORD_0": 3
          },
          "indices": 6,
          "material": 2
        }
      ],
      "name": "roadBump"
    }
  ],
  "nodes": [
    {
      "mesh": 0,
      "translation": [
        -6.95359039,
        3.947953E-17,
        -3.322422
      ],
      "name": "roadBump"
    }
  ],
  "scene": 0,
  "scenes": [
    {
      "nodes": [
        0
      ],
      "name": "roadBump"
    }
  ]
}