{
  "accessors": [
    {
      "bufferView": 0,
      "componentType": 5126,
      "count": 67,
      "type": "VEC3",
      "max": [
        1.0,
        0.019999999552965164,
        2.0
      ],
      "min": [
        -2.0,
        0.0,
        0.0
      ]
    },
    {
      "bufferView": 1,
      "componentType": 5126,
      "count": 67,
      "type": "VEC3",
      "max": [
        0.89442718029022217,
        1.0,
        0.44721359014511108
      ],
      "min": [
        -0.89442718029022217,
        0.0,
        -0.44721359014511108
      ]
    },
    {
      "bufferView": 2,
      "componentType": 5126,
      "count": 67,
      "type": "VEC4",
      "max": [
        0.44721359014511108,
        0.0,
        0.89442718029022217,
        1.0
      ],
      "min": [
        -1.0,
        0.0,
        -0.89442718029022217,
        1.0
      ]
    },
    {
      "bufferView": 3,
      "componentType": 5126,
      "count": 67,
      "type": "VEC2",
      "max": [
        104.20336151123047,
        1.0
      ],
      "min": [
        -102.91432952880859,
        -77.740158081054688
      ]
    },
    {
      "bufferView": 4,
      "componentType": 5121,
      "count": 72,
      "type": "SCALAR",
      "max": [
        45.0
      ],
      "min": [
        0.0
      ]
    },
    {
      "bufferView": 5,
      "componentType": 5121,
      "count": 24,
      "type": "SCALAR",
      "max": [
        59.0
      ],
      "min": [
        46.0
      ]
    },
    {
      "bufferView": 6,
      "componentType": 5121,
      "count": 15,
      "type": "SCALAR",
      "max": [
        66.0
      ],
      "min": [
        60.0
      ]
    }
  ],
  "asset": {
    "version": "2.0"
  },
  "buffers": [
    {
      "uri": "roadSplit.bin",
      "byteLength": 3327
    }
  ],
  "bufferViews": [
    {
      "buffer": 0,
      "byteLength": 804
    },
    {
      "buffer": 0,
      "byteOffset": 804,
      "byteLength": 804
    },
    {
      "buffer": 0,
      "byteOffset": 1608,
      "byteLength": 1072
    },
    {
      "buffer": 0,
      "byteOffset": 2680,
      "byteLength": 536
    },
    {
      "buffer": 0,
      "byteOffset": 3216,
      "byteLength": 72
    },
    {
      "buffer": 0,
      "byteOffset": 3288,
      "byteLength": 24
    },
    {
      "buffer": 0,
      "byteOffset": 3312,
      "byteLength": 15
    }
  ],
  "materials": [
    {
      "pbrMetallicRoughness": {
        "baseColorFactor": [
          0.945098042,
          0.9490196,
          0.9647059,
          1.0
        ],
        "metallicFactor": 0.0
      },
      "name": "grey"
    },
    {
      "pbrMetallicRoughness": {
        "baseColorFactor": [
          0.3019608,
          0.56078434,
          0.431372553,
          1.0
        ],
        "metallicFactor": 0.0
      },
      "name": "grass"
    },
    {
      "pbrMetallicRoughness": {
        "baseColorFactor": [
          0.266666681,
          0.266666681,
          0.266666681,
          1.0
        ],
        "metallicFactor": 0.0
      },
      "name": "road"
    }
  ],
  "meshes": [
    {
      "primitives": [
        {
          "attributes": {
            "POSITION": 0,
            "NORMAL": 1,
            "TANGENT": 2,
            "TEXCOORD_0": 3
          },
          "indices": 4,
          "material": 0
        },
        {
          "attributes": {
            "POSITION": 0,
            "NORMAL": 1,
            "TANGENT": 2,
            "TEXCOORD_0": 3
          },
          "indices": 5,
          "material": 1
        },
        {
          "attributes": {
            "POSITION": 0,
            "NORMAL": 1,
            "TANGENT": 2,
            "TEXCOORD_0": 3
          },
          "indices": 6,
          "material": 2
        }
      ],
      "name": "roadSplit"
    }
  ],
  "nodes": [
    {
      "mesh": 0,
      "translation": [
        -7.95359039,
        3.947953E-17,
        -5.572422
      ],
      "name": "roadSplit"
    }
  ],
  "scene": 0,
  "scenes": [
    {
      "nodes": [
        0
      ],
      "name": "roadSplit"
    }
  ]
}