{
  "accessors": [
    {
      "bufferView": 0,
      "componentType": 5126,
      "count": 64,
      "type": "VEC3",
      "max": [
        0.0,
        0.019999999552965164,
        2.0
      ],
      "min": [
        -2.0,
        0.0,
        0.0
      ]
    },
    {
      "bufferView": 1,
      "componentType": 5126,
      "count": 64,
      "type": "VEC3",
      "max": [
        1.0,
        1.0,
        0.44721359014511108
      ],
      "min": [
        -1.0,
        0.0,
        -0.44721359014511108
      ]
    },
    {
      "bufferView": 2,
      "componentType": 5126,
      "count": 64,
      "type": "VEC4",
      "max": [
        0.44721359014511108,
        0.0,
        1.0,
        1.0
      ],
      "min": [
        -1.0,
        0.0,
        -1.0,
        1.0
      ]
    },
    {
      "bufferView": 3,
      "componentType": 5126,
      "count": 64,
      "type": "VEC2",
      "max": [
        104.20336151123047,
        1.0
      ],
      "min": [
        -102.91432952880859,
        -77.740158081054688
      ]
    },
    {
      "bufferView": 4,
      "componentType": 5121,
      "count": 72,
      "type": "SCALAR",
      "max": [
        45.0
      ],
      "min": [
        0.0
      ]
    },
    {
      "bufferView": 5,
      "componentType": 5121,
      "count": 15,
      "type": "SCALAR",
      "max": [
        56.0
      ],
      "min": [
        46.0
      ]
    },
    {
      "bufferView": 6,
      "componentType": 5121,
      "count": 15,
      "type": "SCALAR",
      "max": [
        63.0
      ],
      "min": [
        57.0
      ]
    }
  ],
  "asset": {
    "version": "2.0"
  },
  "buffers": [
    {
      "uri": "roadPitEntry.bin",
      "byteLength": 3174
    }
  ],
  "bufferViews": [
    {
      "buffer": 0,
      "byteLength": 768
    },
    {
      "buffer": 0,
      "byteOffset": 768,
      "byteLength": 768
    },
    {
      "buffer": 0,
      "byteOffset": 1536,
      "byteLength": 1024
    },
    {
      "buffer": 0,
      "byteOffset": 2560,
      "byteLength": 512
    },
    {
      "buffer": 0,
      "byteOffset": 3072,
      "byteLength": 72
    },
    {
      "buffer": 0,
      "byteOffset": 3144,
      "byteLength": 15
    },
    {
      "buffer": 0,
      "byteOffset": 3159,
      "byteLength": 15
    }
  ],
  "materials": [
    {
      "pbrMetallicRoughness": {
        "baseColorFactor": [
          0.945098042,
          0.9490196,
          0.9647059,
          1.0
        ],
        "metallicFactor": 0.0
      },
      "name": "grey"
    },
    {
      "pbrMetallicRoughness": {
        "baseColorFactor": [
          0.3019608,
          0.56078434,
          0.431372553,
          1.0
        ],
        "metallicFactor": 0.0
      },
      "name": "grass"
    },
    {
      "pbrMetallicRoughness": {
        "baseColorFactor": [
          0.266666681,
          0.266666681,
          0.266666681,
          1.0
        ],
        "metallicFactor": 0.0
      },
      "name": "road"
    }
  ],
  "meshes": [
    {
      "primitives": [
        {
          "attributes": {
            "POSITION": 0,
            "NORMAL": 1,
            "TANGENT": 2,
            "TEXCOORD_0": 3
          },
          "indices": 4,
          "material": 0
        },
        {
          "attributes": {
            "POSITION": 0,
            "NORMAL": 1,
            "TANGENT": 2,
            "TEXCOORD_0": 3
          },
          "indices": 5,
          "material": 1
        },
        {
          "attributes": {
            "POSITION": 0,
            "NORMAL": 1,
            "TANGENT": 2,
            "TEXCOORD_0": 3
          },
          "indices": 6,
          "material": 2
        }
      ],
      "name": "roadPitEntry"
    }
  ],
  "nodes": [
    {
      "mesh": 0,
      "translation": [
        -4.36359024,
        4.51194665E-17,
        -5.61242247
      ],
      "name": "roadPitEntry"
    }
  ],
  "scene": 0,
  "scenes": [
    {
      "nodes": [
        0
      ],
      "name": "roadPitEntry"
    }
  ]
}