{
  "accessors": [
    {
      "bufferView": 0,
      "componentType": 5126,
      "count": 74,
      "type": "VEC3",
      "max": [
        0.0,
        0.51999998092651367,
        1.0
      ],
      "min": [
        -1.0,
        0.0,
        0.0
      ]
    },
    {
      "bufferView": 1,
      "componentType": 5126,
      "count": 74,
      "type": "VEC3",
      "max": [
        1.0,
        1.0,
        1.0
      ],
      "min": [
        -1.0,
        -1.0,
        -1.0
      ]
    },
    {
      "bufferView": 2,
      "componentType": 5126,
      "count": 74,
      "type": "VEC4",
      "max": [
        1.0,
        0.0,
        1.0,
        1.0
      ],
      "min": [
        -1.0,
        0.0,
        -1.0,
        1.0
      ]
    },
    {
      "bufferView": 3,
      "componentType": 5126,
      "count": 74,
      "type": "VEC2",
      "max": [
        39.370079040527344,
        1.0
      ],
      "min": [
        -39.370079040527344,
        -38.370079040527344
      ]
    },
    {
      "bufferView": 4,
      "componentType": 5121,
      "count": 84,
      "type": "SCALAR",
      "max": [
        39.0
      ],
      "min": [
        0.0
      ]
    },
    {
      "bufferView": 5,
      "componentType": 5121,
      "count": 36,
      "type": "SCALAR",
      "max": [
        63.0
      ],
      "min": [
        40.0
      ]
    },
    {
      "bufferView": 6,
      "componentType": 5121,
      "count": 6,
      "type": "SCALAR",
      "max": [
        67.0
      ],
      "min": [
        64.0
      ]
    },
    {
      "bufferView": 7,
      "componentType": 5121,
      "count": 6,
      "type": "SCALAR",
      "max": [
        73.0
      ],
      "min": [
        68.0
      ]
    }
  ],
  "asset": {
    "version": "2.0"
  },
  "buffers": [
    {
      "uri": "roadStraightBridge.bin",
      "byteLength": 3684
    }
  ],
  "bufferViews": [
    {
      "buffer": 0,
      "byteLength": 888
    },
    {
      "buffer": 0,
      "byteOffset": 888,
      "byteLength": 888
    },
    {
      "buffer": 0,
      "byteOffset": 1776,
      "byteLength": 1184
    },
    {
      "buffer": 0,
      "byteOffset": 2960,
      "byteLength": 592
    },
    {
      "buffer": 0,
      "byteOffset": 3552,
      "byteLength": 84
    },
    {
      "buffer": 0,
      "byteOffset": 3636,
      "byteLength": 36
    },
    {
      "buffer": 0,
      "byteOffset": 3672,
      "byteLength": 6
    },
    {
      "buffer": 0,
      "byteOffset": 3678,
      "byteLength": 6
    }
  ],
  "materials": [
    {
      "pbrMetallicRoughness": {
        "baseColorFactor": [
          1.0,
          0.9490196,
          0.870588243,
          1.0
        ],
        "metallicFactor": 0.0
      },
      "name": "wall"
    },
    {
      "pbrMetallicRoughness": {
        "baseColorFactor": [
          0.945098042,
          0.9490196,
          0.9647059,
          1.0
        ],
        "metallicFactor": 0.0
      },
      "name": "grey"
    },
    {
      "pbrMetallicRoughness": {
        "baseColorFactor": [
          0.266666681,
          0.266666681,
          0.266666681,
          1.0
        ],
        "metallicFactor": 0.0
      },
      "name": "road"
    },
    {
      "pbrMetallicRoughness": {
        "metallicFactor": 0.0
      },
      "name": "_defaultMat"
    }
  ],
  "meshes": [
    {
      "primitives": [
        {
          "attributes": {
            "POSITION": 0,
            "NORMAL": 1,
            "TANGENT": 2,
            "TEXCOORD_0": 3
          },
          "indices": 4,
          "material": 0
        },
        {
          "attributes": {
            "POSITION": 0,
            "NORMAL": 1,
            "TANGENT": 2,
            "TEXCOORD_0": 3
          },
          "indices": 5,
          "material": 1
        },
        {
          "attributes": {
            "POSITION": 0,
            "NORMAL": 1,
            "TANGENT": 2,
            "TEXCOORD_0": 3
          },
          "indices": 6,
          "material": 2
        },
        {
          "attributes": {
            "POSITION": 0,
            "NORMAL": 1,
            "TANGENT": 2,
            "TEXCOORD_0": 3
          },
          "indices": 7,
          "material": 3
        }
      ],
      "name": "roadStraightBridge"
    }
  ],
  "nodes": [
    {
      "mesh": 0,
      "translation": [
        -0.753590345,
        0.0,
        1.32757783
      ],
      "name": "roadStraightBridge"
    }
  ],
  "scene": 0,
  "scenes": [
    {
      "nodes": [
        0
      ],
      "name": "roadStraightBridge"
    }
  ]
}