{
  "accessors": [
    {
      "bufferView": 0,
      "componentType": 5126,
      "count": 96,
      "type": "VEC3",
      "max": [
        0.0,
        0.019999999552965164,
        1.0
      ],
      "min": [
        -1.0,
        0.0,
        0.0
      ]
    },
    {
      "bufferView": 1,
      "componentType": 5126,
      "count": 96,
      "type": "VEC3",
      "max": [
        1.0,
        1.0,
        1.0
      ],
      "min": [
        -1.0,
        0.0,
        -1.0
      ]
    },
    {
      "bufferView": 2,
      "componentType": 5126,
      "count": 96,
      "type": "VEC4",
      "max": [
        1.0,
        0.0,
        1.0,
        1.0
      ],
      "min": [
        -1.0,
        0.0,
        -1.0,
        1.0
      ]
    },
    {
      "bufferView": 3,
      "componentType": 5126,
      "count": 96,
      "type": "VEC2",
      "max": [
        39.370086669921875,
        1.0
      ],
      "min": [
        -39.370079040527344,
        -38.370079040527344
      ]
    },
    {
      "bufferView": 4,
      "componentType": 5121,
      "count": 96,
      "type": "SCALAR",
      "max": [
        61.0
      ],
      "min": [
        0.0
      ]
    },
    {
      "bufferView": 5,
      "componentType": 5121,
      "count": 30,
      "type": "SCALAR",
      "max": [
        73.0
      ],
      "min": [
        62.0
      ]
    },
    {
      "bufferView": 6,
      "componentType": 5121,
      "count": 48,
      "type": "SCALAR",
      "max": [
        95.0
      ],
      "min": [
        74.0
      ]
    }
  ],
  "asset": {
    "version": "2.0"
  },
  "buffers": [
    {
      "uri": "roadPitGarage.bin",
      "byteLength": 4782
    }
  ],
  "bufferViews": [
    {
      "buffer": 0,
      "byteLength": 1152
    },
    {
      "buffer": 0,
      "byteOffset": 1152,
      "byteLength": 1152
    },
    {
      "buffer": 0,
      "byteOffset": 2304,
      "byteLength": 1536
    },
    {
      "buffer": 0,
      "byteOffset": 3840,
      "byteLength": 768
    },
    {
      "buffer": 0,
      "byteOffset": 4608,
      "byteLength": 96
    },
    {
      "buffer": 0,
      "byteOffset": 4704,
      "byteLength": 30
    },
    {
      "buffer": 0,
      "byteOffset": 4734,
      "byteLength": 48
    }
  ],
  "materials": [
    {
      "pbrMetallicRoughness": {
        "baseColorFactor": [
          0.945098042,
          0.9490196,
          0.9647059,
          1.0
        ],
        "metallicFactor": 0.0
      },
      "name": "grey"
    },
    {
      "pbrMetallicRoughness": {
        "baseColorFactor": [
          0.266666681,
          0.266666681,
          0.266666681,
          1.0
        ],
        "metallicFactor": 0.0
      },
      "name": "road"
    },
    {
      "pbrMetallicRoughness": {
        "baseColorFactor": [
          0.3019608,
          0.56078434,
          0.431372553,
          1.0
        ],
        "metallicFactor": 0.0
      },
      "name": "grass"
    }
  ],
  "meshes": [
    {
      "primitives": [
        {
          "attributes": {
            "POSITION": 0,
            "NORMAL": 1,
            "TANGENT": 2,
            "TEXCOORD_0": 3
          },
          "indices": 4,
          "material": 0
        },
        {
          "attributes": {
            "POSITION": 0,
            "NORMAL": 1,
            "TANGENT": 2,
            "TEXCOORD_0": 3
          },
          "indices": 5,
          "material": 1
        },
        {
          "attributes": {
            "POSITION": 0,
            "NORMAL": 1,
            "TANGENT": 2,
            "TEXCOORD_0": 3
          },
          "indices": 6,
          "material": 2
        }
      ],
      "name": "roadPitGarage"
    }
  ],
  "nodes": [
    {
      "mesh": 0,
      "translation": [
        1.83640957,
        0.0,
        -5.90242243
      ],
      "name": "roadPitGarage"
    }
  ],
  "scene": 0,
  "scenes": [
    {
      "nodes": [
        0
      ],
      "name": "roadPitGarage"
    }
  ]
}