{
  "accessors": [
    {
      "bufferView": 0,
      "componentType": 5126,
      "count": 128,
      "type": "VEC3",
      "max": [
        0.0,
        0.699999988079071,
        1.0
      ],
      "min": [
        -2.0,
        0.0,
        0.0
      ]
    },
    {
      "bufferView": 1,
      "componentType": 5126,
      "count": 128,
      "type": "VEC3",
      "max": [
        1.0,
        1.0,
        1.0
      ],
      "min": [
        -1.0,
        -1.0,
        -1.0
      ]
    },
    {
      "bufferView": 2,
      "componentType": 5126,
      "count": 128,
      "type": "VEC4",
      "max": [
        1.0,
        0.0,
        1.0,
        1.0
      ],
      "min": [
        -1.0,
        0.0,
        -1.0,
        1.0
      ]
    },
    {
      "bufferView": 3,
      "componentType": 5126,
      "count": 128,
      "type": "VEC2",
      "max": [
        78.740158081054688,
        66.597000122070313
      ],
      "min": [
        -78.740158081054688,
        -38.370079040527344
      ]
    },
    {
      "bufferView": 4,
      "componentType": 5121,
      "count": 114,
      "type": "SCALAR",
      "max": [
        59.0
      ],
      "min": [
        0.0
      ]
    },
    {
      "bufferView": 5,
      "componentType": 5121,
      "count": 144,
      "type": "SCALAR",
      "max": [
        127.0
      ],
      "min": [
        1.0
      ]
    }
  ],
  "asset": {
    "version": "2.0"
  },
  "buffers": [
    {
      "uri": "tentLong.bin",
      "byteLength": 6402
    }
  ],
  "bufferViews": [
    {
      "buffer": 0,
      "byteLength": 1536
    },
    {
      "buffer": 0,
      "byteOffset": 1536,
      "byteLength": 1536
    },
    {
      "buffer": 0,
      "byteOffset": 3072,
      "byteLength": 2048
    },
    {
      "buffer": 0,
      "byteOffset": 5120,
      "byteLength": 1024
    },
    {
      "buffer": 0,
      "byteOffset": 6144,
      "byteLength": 114
    },
    {
      "buffer": 0,
      "byteOffset": 6258,
      "byteLength": 144
    }
  ],
  "materials": [
    {
      "pbrMetallicRoughness": {
        "baseColorFactor": [
          0.9098039,
          0.333333343,
          0.3254902,
          1.0
        ],
        "metallicFactor": 0.0
      },
      "name": "red"
    },
    {
      "pbrMetallicRoughness": {
        "baseColorFactor": [
          0.945098042,
          0.9490196,
          0.9647059,
          1.0
        ],
        "metallicFactor": 0.0
      },
      "name": "grey"
    }
  ],
  "meshes": [
    {
      "primitives": [
        {
          "attributes": {
            "POSITION": 0,
            "NORMAL": 1,
            "TANGENT": 2,
            "TEXCOORD_0": 3
          },
          "indices": 4,
          "material": 0
        },
        {
          "attributes": {
            "POSITION": 0,
            "NORMAL": 1,
            "TANGENT": 2,
            "TEXCOORD_0": 3
          },
          "indices": 5,
          "material": 1
        }
      ],
      "name": "tentLong"
    }
  ],
  "nodes": [
    {
      "mesh": 0,
      "translation": [
        8.103105,
        0.0,
        -2.502422
      ],
      "name": "tentLong"
    }
  ],
  "scene": 0,
  "scenes": [
    {
      "nodes": [
        0
      ],
      "name": "tentLong"
    }
  ]
}