{
  "accessors": [
    {
      "bufferView": 0,
      "componentType": 5126,
      "count": 170,
      "type": "VEC3",
      "max": [
        0.0,
        0.699999988079071,
        1.0
      ],
      "min": [
        -2.0,
        0.0,
        0.0
      ]
    },
    {
      "bufferView": 1,
      "componentType": 5126,
      "count": 170,
      "type": "VEC3",
      "max": [
        1.0,
        1.0,
        1.0
      ],
      "min": [
        -1.0,
        -1.0,
        -1.0
      ]
    },
    {
      "bufferView": 2,
      "componentType": 5126,
      "count": 170,
      "type": "VEC4",
      "max": [
        1.0,
        0.0,
        1.0,
        1.0
      ],
      "min": [
        -1.0,
        0.0,
        -1.0,
        -1.0
      ]
    },
    {
      "bufferView": 3,
      "componentType": 5126,
      "count": 170,
      "type": "VEC2",
      "max": [
        78.740158081054688,
        66.597000122070313
      ],
      "min": [
        -78.740158081054688,
        -38.370079040527344
      ]
    },
    {
      "bufferView": 4,
      "componentType": 5121,
      "count": 186,
      "type": "SCALAR",
      "max": [
        101.0
      ],
      "min": [
        0.0
      ]
    },
    {
      "bufferView": 5,
      "componentType": 5121,
      "count": 144,
      "type": "SCALAR",
      "max": [
        169.0
      ],
      "min": [
        1.0
      ]
    }
  ],
  "asset": {
    "version": "2.0"
  },
  "buffers": [
    {
      "uri": "tentClosedLong.bin",
      "byteLength": 8490
    }
  ],
  "bufferViews": [
    {
      "buffer": 0,
      "byteLength": 2040
    },
    {
      "buffer": 0,
      "byteOffset": 2040,
      "byteLength": 2040
    },
    {
      "buffer": 0,
      "byteOffset": 4080,
      "byteLength": 2720
    },
    {
      "buffer": 0,
      "byteOffset": 6800,
      "byteLength": 1360
    },
    {
      "buffer": 0,
      "byteOffset": 8160,
      "byteLength": 186
    },
    {
      "buffer": 0,
      "byteOffset": 8346,
      "byteLength": 144
    }
  ],
  "materials": [
    {
      "pbrMetallicRoughness": {
        "baseColorFactor": [
          0.3019608,
          0.56078434,
          0.431372553,
          1.0
        ],
        "metallicFactor": 0.0
      },
      "name": "grass"
    },
    {
      "pbrMetallicRoughness": {
        "baseColorFactor": [
          0.945098042,
          0.9490196,
          0.9647059,
          1.0
        ],
        "metallicFactor": 0.0
      },
      "name": "grey"
    }
  ],
  "meshes": [
    {
      "primitives": [
        {
          "attributes": {
            "POSITION": 0,
            "NORMAL": 1,
            "TANGENT": 2,
            "TEXCOORD_0": 3
          },
          "indices": 4,
          "material": 0
        },
        {
          "attributes": {
            "POSITION": 0,
            "NORMAL": 1,
            "TANGENT": 2,
            "TEXCOORD_0": 3
          },
          "indices": 5,
          "material": 1
        }
      ],
      "name": "tentClosedLong"
    }
  ],
  "nodes": [
    {
      "mesh": 0,
      "translation": [
        8.103105,
        0.0,
        -3.88242221
      ],
      "name": "tentClosedLong"
    }
  ],
  "scene": 0,
  "scenes": [
    {
      "nodes": [
        0
      ],
      "name": "tentClosedLong"
    }
  ]
}