{
  "accessors": [
    {
      "bufferView": 0,
      "componentType": 5126,
      "count": 132,
      "type": "VEC3",
      "max": [
        0.1266455203294754,
        1.0698246955871582,
        0.14623765647411346
      ],
      "min": [
        -0.1266455203294754,
        0.0,
        -0.14623765647411346
      ]
    },
    {
      "bufferView": 1,
      "componentType": 5126,
      "count": 132,
      "type": "VEC3",
      "max": [
        0.99827778339385986,
        1.0,
        0.99827778339385986
      ],
      "min": [
        -0.99827778339385986,
        -1.0,
        -0.99827778339385986
      ]
    },
    {
      "bufferView": 2,
      "componentType": 5126,
      "count": 132,
      "type": "VEC4",
      "max": [
        1.0,
        0.0,
        1.0,
        1.0
      ],
      "min": [
        -1.0,
        0.0,
        -1.0,
        1.0
      ]
    },
    {
      "bufferView": 3,
      "componentType": 5126,
      "count": 132,
      "type": "VEC2",
      "max": [
        2.8786940574645996,
        3.0944058895111084
      ],
      "min": [
        -2.8786940574645996,
        -38.735126495361328
      ]
    },
    {
      "bufferView": 4,
      "componentType": 5121,
      "count": 192,
      "type": "SCALAR",
      "max": [
        115.0
      ],
      "min": [
        0.0
      ]
    },
    {
      "bufferView": 5,
      "componentType": 5121,
      "count": 24,
      "type": "SCALAR",
      "max": [
        131.0
      ],
      "min": [
        116.0
      ]
    }
  ],
  "asset": {
    "version": "2.0"
  },
  "buffers": [
    {
      "uri": "treeSmall.bin",
      "byteLength": 6552
    }
  ],
  "bufferViews": [
    {
      "buffer": 0,
      "byteLength": 1584
    },
    {
      "buffer": 0,
      "byteOffset": 1584,
      "byteLength": 1584
    },
    {
      "buffer": 0,
      "byteOffset": 3168,
      "byteLength": 2112
    },
    {
      "buffer": 0,
      "byteOffset": 5280,
      "byteLength": 1056
    },
    {
      "buffer": 0,
      "byteOffset": 6336,
      "byteLength": 192
    },
    {
      "buffer": 0,
      "byteOffset": 6528,
      "byteLength": 24
    }
  ],
  "materials": [
    {
      "pbrMetallicRoughness": {
        "baseColorFactor": [
          0.3019608,
          0.56078434,
          0.431372553,
          1.0
        ],
        "metallicFactor": 0.0
      },
      "name": "grass"
    },
    {
      "pbrMetallicRoughness": {
        "baseColorFactor": [
          0.831372559,
          0.654902,
          0.423529416,
          1.0
        ],
        "metallicFactor": 0.0
      },
      "name": "bark"
    }
  ],
  "meshes": [
    {
      "primitives": [
        {
          "attributes": {
            "POSITION": 0,
            "NORMAL": 1,
            "TANGENT": 2,
            "TEXCOORD_0": 3
          },
          "indices": 4,
          "material": 0
        },
        {
          "attributes": {
            "POSITION": 0,
            "NORMAL": 1,
            "TANGENT": 2,
            "TEXCOORD_0": 3
          },
          "indices": 5,
          "material": 1
        }
      ],
      "name": "treeSmall"
    }
  ],
  "nodes": [
    {
      "mesh": 0,
      "translation": [
        2.576053,
        0.0,
        3.24174047
      ],
      "name": "treeSmall"
    }
  ],
  "scene": 0,
  "scenes": [
    {
      "nodes": [
        0
      ],
      "name": "treeSmall"
    }
  ]
}